<?xml version="1.0" encoding="UTF-8" standalone="no"?>
<svg
   xmlns:dc="http://purl.org/dc/elements/1.1/"
   xmlns:cc="http://creativecommons.org/ns#"
   xmlns:rdf="http://www.w3.org/1999/02/22-rdf-syntax-ns#"
   xmlns:svg="http://www.w3.org/2000/svg"
   xmlns="http://www.w3.org/2000/svg"
   xmlns:xlink="http://www.w3.org/1999/xlink"
   xmlns:sodipodi="http://sodipodi.sourceforge.net/DTD/sodipodi-0.dtd"
   xmlns:inkscape="http://www.inkscape.org/namespaces/inkscape"
   width="266.02094"
   height="294.07086"
   id="svg3990"
   sodipodi:version="0.32"
   inkscape:version="1.0.2 (e86c870879, 2021-01-15, custom)"
   version="1.0"
   sodipodi:docname="svg.svg"
   inkscape:output_extension="org.inkscape.output.svg.inkscape">
  <defs
     id="defs3992" />
  <sodipodi:namedview
     id="base"
     pagecolor="#ffffff"
     bordercolor="#666666"
     borderopacity="1.0"
     gridtolerance="10000"
     guidetolerance="10"
     objecttolerance="10"
     inkscape:pageopacity="0.0"
     inkscape:pageshadow="2"
     inkscape:zoom="2"
     inkscape:cx="122.81254"
     inkscape:cy="109.66702"
     inkscape:document-units="px"
     inkscape:current-layer="layer1"
     showgrid="false"
     inkscape:window-width="1920"
     inkscape:window-height="1017"
     inkscape:window-x="-8"
     inkscape:window-y="-4"
     inkscape:window-maximized="1"
     inkscape:document-rotation="0"
     inkscape:snap-smooth-nodes="true">
    <inkscape:grid
       type="xygrid"
       id="grid6780"
       empspacing="5"
       visible="true"
       enabled="true"
       snapvisiblegridlinesonly="true"
       originx="-119.98953"
       originy="-25.9823" />
  </sodipodi:namedview>
  <metadata
     id="metadata3995">
    <rdf:RDF>
      <cc:Work
         rdf:about="">
        <dc:format>image/svg+xml</dc:format>
        <dc:type
           rdf:resource="http://purl.org/dc/dcmitype/StillImage" />
        <dc:title />
      </cc:Work>
    </rdf:RDF>
  </metadata>
  <g
     inkscape:label="Layer 1"
     inkscape:groupmode="layer"
     id="layer1"
     transform="translate(-119.9895,-1281.9823)">
    <path
       style="fill:#ffb400;fill-opacity:1;stroke:#000000;stroke-width:2px;stroke-linecap:butt;stroke-linejoin:miter;stroke-opacity:1"
       d="m 252.99997,1320.9823 c -7.96522,0.1728 -8,8 -8,8 -24,-12 -34,8 -68,8 l -14,32 c 44,34 0,58 0,106 0,50 48,44 48,44 l 42,30 42,-30 c 0,0 48,6 48,-44 0,-48 -44,-72 0,-106 l -14,-32 c -34,0 -44,-20 -68,-8 0,0 -0.0348,-7.828 -8,-8 z"
       id="path7864" />
    <path
       style="fill:#003271;fill-opacity:1;stroke:none;stroke-width:2px;stroke-linecap:butt;stroke-linejoin:miter;stroke-opacity:1"
       d="m 233.24997,1330.7323 c -4.54468,-0.1696 -15.25,5.75 -12.25,16.25 -6,2 -8,-2 -10,-6 -20,18 -24,8 -14,0 h -16 l -12,26 c 46,34 0,64 0,108 0,18.7989 10,46 44,36 10.87496,13.5119 26.6467,20.0285 40,30 13.3533,-9.9714 29.12504,-16.488 40,-30 34,10 44,-17.2012 44,-36 0,-44 -46,-74 0,-108 l -12,-26 h -16 c 10,8 6,18 -14,0 -2,4 -4,8 -10,6 4,-14 -16.34888,-19.8722 -14,-14 4,10 -8,12 -10,0 0,0 -2,4 -8,4 -6,0 -8,-4 -8,-4 -2,12 -14,10 -10,0 0.58722,-1.4681 -0.2351,-2.1935 -1.75,-2.25 z"
       id="path7871" />
    <g
       transform="matrix(1.7121144,0,0,1.7121144,-237.93575,1033.8568)"
       id="g3418">
      <defs
         id="defs3420">
        <path
           d="m 243,154.98 c 0,24.84 -20.16,45 -45,45 -24.84,0 -45,-20.16 -45,-45 0,-24.84 20.16,-45 45,-45 24.84,0 45,20.16 45,45"
           id="SVGID_13_" />
      </defs>
      <clipPath
         id="SVGID_14_">
        <use
           style="overflow:visible"
           id="use3424"
           x="0"
           y="0"
           width="423.06"
           height="652.44"
           xlink:href="#SVGID_13_" />
      </clipPath>
    </g>
    <g
       id="g7859"
       transform="matrix(2,0,0,2,-252.99997,-1429.0177)">
      <path
         transform="translate(-2.8559347e-5,1256)"
         sodipodi:nodetypes="ccccccccccccscscscccccccccccc"
         id="path2293"
         d="m 247,144 c -4.17665,0.33323 -8.95621,0.81007 -13.6875,2.09375 l 0.0625,4.25 c 0,0 11.2328,1.39575 17.3125,1.90625 l -0.3125,42.46875 h -0.0312 c -0.0582,2.3646 -1.25433,6.4348 -9.3125,3.75 -3.42591,-1.3328 -7.39164,-3.5168 -12.25,-8.3125 1.55236,-1.4762 5.375,-2.75 5.375,-2.75 -8.7789,-3.2328 -15.84375,-7.3125 -15.84375,-7.3125 -0.42824,10.1294 6.84375,17.21875 6.84375,17.21875 0.081,-2.1215 0.57598,-3.16395 1.15625,-3.78125 6.26598,6.1478 11.09569,7.92815 15.125,9.21875 4.63611,1.4849 11.39078,7.76995 11.5625,7.96875 0.17129,-0.1988 6.92639,-6.48345 11.5625,-7.96875 4.02931,-1.2906 8.82777,-3.07135 15.09375,-9.21875 0.57983,0.6173 1.07531,1.65975 1.15625,3.78125 7.3e-4,0 7.30324,-7.08935 6.875,-17.21875 0,0 -7.06486,4.0797 -15.84375,7.3125 0,0 3.82264,1.2742 5.375,2.75 -4.85836,4.7957 -8.85534,6.9801 -12.28125,8.3125 -8.05773,2.6848 -9.22301,-1.3854 -9.28125,-3.75 h -0.0312 L 255.28135,152.25 c 6.07941,-0.5105 17.34375,-1.90625 17.34375,-1.90625 l 0.0625,-4.25 C 267.96851,144.81385 263.17974,144.33398 259,144 c 0.0408,3.59046 -2.56477,5.44589 -5.99995,6 -3.77024,-0.23455 -5.64953,-2.67525 -6.00005,-6 z"
         style="fill:#ffb400;fill-opacity:1;stroke:#003271;stroke-width:0.5;stroke-miterlimit:4;stroke-dasharray:none;stroke-opacity:1" />
      <path
         id="path1281"
         style="color:#000000;font-style:normal;font-variant:normal;font-weight:normal;font-stretch:normal;font-size:medium;line-height:normal;font-family:sans-serif;font-variant-ligatures:normal;font-variant-position:normal;font-variant-caps:normal;font-variant-numeric:normal;font-variant-alternates:normal;font-variant-east-asian:normal;font-feature-settings:normal;font-variation-settings:normal;text-indent:0;text-align:start;text-decoration:none;text-decoration-line:none;text-decoration-style:solid;text-decoration-color:#000000;letter-spacing:normal;word-spacing:normal;text-transform:none;writing-mode:lr-tb;direction:ltr;text-orientation:mixed;dominant-baseline:auto;baseline-shift:baseline;text-anchor:start;white-space:normal;shape-padding:0;shape-margin:0;inline-size:0;clip-rule:nonzero;display:inline;overflow:visible;visibility:visible;opacity:1;isolation:auto;mix-blend-mode:normal;color-interpolation:sRGB;color-interpolation-filters:linearRGB;solid-color:#000000;solid-opacity:1;vector-effect:none;fill:#ffb400;fill-opacity:1;fill-rule:nonzero;stroke:none;stroke-linecap:square;stroke-linejoin:round;stroke-miterlimit:4;stroke-dasharray:none;stroke-dashoffset:0;stroke-opacity:1;color-rendering:auto;image-rendering:auto;shape-rendering:auto;text-rendering:auto;enable-background:accumulate;stop-color:#000000;stop-opacity:1"
         d="m 251.32812,138.86914 c -2.16091,0.7062 -3.72851,2.73725 -3.72851,5.13086 0,2.9776 2.42278,5.40039 5.40039,5.40039 2.97761,0 5.40039,-2.42279 5.40039,-5.40039 0,-2.39361 -1.5676,-4.42466 -3.72851,-5.13086 v 0.85547 c 1.71335,0.66833 2.92773,2.32192 2.92773,4.27539 0,2.5453 -2.05436,4.59961 -4.59961,4.59961 -2.54525,0 -4.59961,-2.05431 -4.59961,-4.59961 0,-1.95347 1.21438,-3.60706 2.92773,-4.27539 z"
         transform="translate(-2.8559347e-5,1256)" />
      <path
         sodipodi:nodetypes="cccczccc"
         transform="translate(-2.8559347e-5,1256)"
         id="path7857"
         d="m 254,137 h -2 v 6.9375 l -3,0.1875 c 0,0 0.67486,3.875 4,3.875 3.32514,0 4,-3.875 4,-3.875 l -3,-0.1875 z"
         style="fill:#ffb400;fill-opacity:1;stroke:none;stroke-width:1px;stroke-linecap:butt;stroke-linejoin:miter;stroke-opacity:1" />
    </g>
    <g
       id="g7903"
       transform="matrix(2,0,0,2,-252.99997,-1429.0177)">
      <path
         sodipodi:nodetypes="cccccc"
         id="path7880"
         d="m 187.99997,1378 c 22,-14 22,-11 46,-13 l 9,8 c -3,6 -33,-5 -47,18 0,-4 -0.0796,-6.6631 3,-12 z"
         style="fill:#ffb400;fill-opacity:1;stroke:#000000;stroke-width:1px;stroke-linecap:butt;stroke-linejoin:miter;stroke-opacity:1" />
      <path
         sodipodi:nodetypes="cscc"
         id="path7878"
         d="m 242.99997,1373 c 0,0 -13,-1 -7,-3 4.74342,-1.5811 3,-6 3,-6 3.29566,3.3013 5,7 4,9 z"
         style="fill:#ffb400;fill-opacity:1;stroke:#000000;stroke-width:1px;stroke-linecap:butt;stroke-linejoin:miter;stroke-opacity:1" />
      <path
         style="fill:#ffb400;fill-opacity:1;stroke:#000000;stroke-width:1px;stroke-linecap:butt;stroke-linejoin:miter;stroke-opacity:1"
         d="m 317.99997,1378 c -22,-14 -22,-11 -46,-13 l -9,8 c 3,6 33,-5 47,18 0,-4 0.0796,-6.6631 -3,-12 z"
         id="path7889"
         sodipodi:nodetypes="cccccc" />
      <path
         style="fill:#ffb400;fill-opacity:1;stroke:#000000;stroke-width:1px;stroke-linecap:butt;stroke-linejoin:miter;stroke-opacity:1"
         d="m 262.99997,1373 c 0,0 13,-1 7,-3 -4.74342,-1.5811 -3,-6 -3,-6 -3.29566,3.3013 -5,7 -4,9 z"
         id="path7891"
         sodipodi:nodetypes="cscc" />
      <path
         id="path7876"
         transform="translate(-2.8559347e-5,1256)"
         d="m 253,100 c -7.5,0 -22,2 -22,6 0,3 1.41134,6.21887 3.5,8.9375 C 244.29412,111.67279 248.01473,111 253,111 c 4.98527,0 8.70588,0.67279 18.5,3.9375 C 273.58866,112.21887 275,109 275,106 c 0,-4 -14.5,-6 -22,-6 z"
         style="fill:#ffb400;fill-opacity:1;stroke:#000000;stroke-width:1px;stroke-linecap:butt;stroke-linejoin:miter;stroke-opacity:1"
         sodipodi:nodetypes="zsczcsz" />
    </g>
    <g
       id="g7961"
       transform="matrix(2,0,0,2,-252.99997,-1429.0177)">
      <g
         inkscape:transform-center-y="-6.0808937"
         inkscape:transform-center-x="28.914765"
         id="g7920">
        <path
           style="fill:#ffb400;fill-opacity:1;stroke:#000000;stroke-width:1px;stroke-linecap:butt;stroke-linejoin:miter;stroke-opacity:1"
           d="m 197,221 c 13,-5 16.2934,6.86125 23,14 -7.69149,10.57641 -13,-2 -16,-3 -3.05654,-1.01885 -6,0.5061 -9,1 0.42866,-3.67614 3.56774,-5.72602 8,-7 -2.40852,-4.11781 -4.08047,-3.81614 -6,-5 z"
           id="path7910"
           transform="translate(-2.8559347e-5,1256)"
           sodipodi:nodetypes="ccsccc" />
        <path
           style="fill:#ffb400;fill-opacity:1;stroke:#000000;stroke-width:1px;stroke-linecap:butt;stroke-linejoin:miter;stroke-opacity:1"
           d="m 220,226 c 3.99319,3.97276 7.51543,6.06172 12,12 -1.1103,2.97867 -4.47835,5 -7,5 -1.90066,0 -10.12854,-13.42495 -12,-12 -2,0 3,6 4,7 -1,-1 -6,-7 -4,-7 1.72512,-2.07312 3.56193,-4.76219 7,-5 z"
           id="path7912"
           transform="translate(-2.8559347e-5,1256)"
           sodipodi:nodetypes="ccscccc" />
        <path
           style="fill:#ffb400;fill-opacity:1;stroke:#000000;stroke-width:1px;stroke-linecap:butt;stroke-linejoin:miter;stroke-opacity:1"
           d="m 222,237 c 0,0 1.93587,-8.29289 5,-9 3.06413,-0.70711 10,8 10,8 2,3 3.55207,7.44963 1,8 -9.01173,1.94344 -11,-9 -16,-7 z"
           id="path7914"
           sodipodi:nodetypes="cscsc"
           transform="translate(-2.8559347e-5,1256)" />
        <path
           style="fill:#ffb400;fill-opacity:1;stroke:#000000;stroke-width:1px;stroke-linecap:butt;stroke-linejoin:miter;stroke-opacity:1"
           d="m 235.30198,237.74269 c 0,0 -1.05778,-3.48991 0.69802,-5.74269 0.69272,-0.8888 2.58542,-2 4,-2 8,0 11,11 11,11 z"
           id="path7916"
           transform="translate(-2.8559347e-5,1256)"
           sodipodi:nodetypes="csscc" />
        <path
           style="fill:#ffb400;fill-opacity:1;stroke:#000000;stroke-width:1px;stroke-linecap:butt;stroke-linejoin:miter;stroke-opacity:1"
           d="M 253.17047,236.03614 C 246.36938,236.3745 239,235 236,232 c -1.56859,2 -1,4 -1,6 0,9 12,8 18,8"
           id="path7918"
           transform="translate(-2.8559347e-5,1256)"
           sodipodi:nodetypes="ccsc" />
      </g>
      <path
         style="fill:#ffb400;fill-opacity:1;stroke:#000000;stroke-width:1px;stroke-linecap:butt;stroke-linejoin:miter;stroke-opacity:1"
         d="m 196.99997,1477 c 13,-5 16.2934,6.8613 23,14 -7.69149,10.5764 -13,-2 -16,-3 -3.05654,-1.0188 -6,0.5061 -9,1 0.42866,-3.6761 3.56774,-5.726 8,-7 -2.40852,-4.1178 -4.08047,-3.8161 -6,-5 z"
         id="path7929"
         sodipodi:nodetypes="ccsccc" />
      <path
         style="fill:#ffb400;fill-opacity:1;stroke:#000000;stroke-width:1px;stroke-linecap:butt;stroke-linejoin:miter;stroke-opacity:1"
         d="m 219.99997,1482 c 3.99319,3.9728 7.51543,6.0617 12,12 -1.1103,2.9787 -4.47835,5 -7,5 -1.90066,0 -10.12854,-13.4249 -12,-12 -2,0 3,6 4,7 -1,-1 -6,-7 -4,-7 1.72512,-2.0731 3.56193,-4.7622 7,-5 z"
         id="path7931"
         sodipodi:nodetypes="ccscccc" />
      <path
         style="fill:#ffb400;fill-opacity:1;stroke:#000000;stroke-width:1px;stroke-linecap:butt;stroke-linejoin:miter;stroke-opacity:1"
         d="m 221.99997,1493 c 0,0 1.93587,-8.2929 5,-9 3.06413,-0.7071 10,8 10,8 2,3 3.55207,7.4496 1,8 -9.01173,1.9434 -11,-9 -16,-7 z"
         id="path7933"
         sodipodi:nodetypes="cscsc" />
      <path
         style="fill:#ffb400;fill-opacity:1;stroke:#000000;stroke-width:1px;stroke-linecap:butt;stroke-linejoin:miter;stroke-opacity:1"
         d="m 235.30195,1493.7427 c 0,0 -1.05778,-3.4899 0.69802,-5.7427 0.69272,-0.8888 2.58542,-2 4,-2 8,0 11,11 11,11 z"
         id="path7935"
         sodipodi:nodetypes="csscc" />
      <path
         sodipodi:nodetypes="ccsccc"
         id="path7941"
         d="m 308.99997,1477 c -13,-5 -16.2934,6.8613 -23,14 7.69149,10.5764 13,-2 16,-3 3.05654,-1.0188 6,0.5061 9,1 -0.42866,-3.6761 -3.56774,-5.726 -8,-7 2.40852,-4.1178 4.08047,-3.8161 6,-5 z"
         style="fill:#ffb400;fill-opacity:1;stroke:#000000;stroke-width:1px;stroke-linecap:butt;stroke-linejoin:miter;stroke-opacity:1" />
      <path
         sodipodi:nodetypes="ccscccc"
         id="path7943"
         d="m 285.99997,1482 c -3.99319,3.9728 -7.51543,6.0617 -12,12 1.1103,2.9787 4.47835,5 7,5 1.90066,0 10.12854,-13.4249 12,-12 2,0 -3,6 -4,7 1,-1 6,-7 4,-7 -1.72512,-2.0731 -3.56193,-4.7622 -7,-5 z"
         style="fill:#ffb400;fill-opacity:1;stroke:#000000;stroke-width:1px;stroke-linecap:butt;stroke-linejoin:miter;stroke-opacity:1" />
      <path
         sodipodi:nodetypes="cscsc"
         id="path7945"
         d="m 283.99997,1493 c 0,0 -1.93587,-8.2929 -5,-9 -3.06413,-0.7071 -10,8 -10,8 -2,3 -3.55207,7.4496 -1,8 9.01173,1.9434 11,-9 16,-7 z"
         style="fill:#ffb400;fill-opacity:1;stroke:#000000;stroke-width:1px;stroke-linecap:butt;stroke-linejoin:miter;stroke-opacity:1" />
      <path
         sodipodi:nodetypes="csscc"
         id="path7947"
         d="m 270.69799,1493.7427 c 0,0 1.05778,-3.4899 -0.69802,-5.7427 -0.69272,-0.8888 -2.58542,-2 -4,-2 -8,0 -11,11 -11,11 z"
         style="fill:#ffb400;fill-opacity:1;stroke:#000000;stroke-width:1px;stroke-linecap:butt;stroke-linejoin:miter;stroke-opacity:1" />
      <path
         style="fill:#ffb400;fill-opacity:1;stroke:#000000;stroke-width:1px;stroke-linecap:butt;stroke-linejoin:miter;stroke-opacity:1"
         d="m 235.99997,1488 c -1.56859,2 -1,4 -1,6 0,9 12,8 18,8 6,0 18,1 18,-8 0,-2 0.56859,-4 -1,-6 -2.95591,2.9559 -9.78442,3.9675 -16.84375,4.0313 -0.10539,-6e-4 -0.2072,9e-4 -0.3125,0 -7.05933,-0.064 -13.88784,-1.0754 -16.84375,-4.0313 z"
         id="path7937" />
    </g>
    <path
       style="fill:none;stroke:#ffb400;stroke-width:2px;stroke-linecap:butt;stroke-linejoin:miter;stroke-opacity:1"
       d="m 154.99997,1328.9823 c 22,-14 38.06064,-9.9008 60,-12"
       id="path7996"
       sodipodi:nodetypes="cc" />
    <g
       style="font-style:normal;font-weight:normal;font-size:8px;font-family:Arial;-inkscape-font-specification:Arial;fill:#003271;fill-opacity:1;stroke:none"
       id="text8011"
       transform="matrix(2,0,0,2,-252.99997,-1429.0177)">
      <path
         d="m 204.49813,1378.6035 -2.69924,-5.0505 2.23931,-1.1968 c 0.45016,-0.2406 0.81662,-0.3782 1.09937,-0.4126 0.28275,-0.034 0.55555,0.026 0.8184,0.1804 0.26285,0.1548 0.46853,0.3712 0.61706,0.6491 0.19149,0.3583 0.23692,0.7223 0.13629,1.092 -0.10063,0.3697 -0.37545,0.7174 -0.82446,1.043 0.22226,-0.01 0.40142,0 0.53748,0.036 0.29097,0.075 0.59553,0.1999 0.9137,0.3753 l 1.61315,0.9051 -0.8406,0.4493 -1.22993,-0.6936 c -0.35725,-0.1988 -0.64199,-0.3449 -0.85424,-0.4381 -0.21224,-0.093 -0.3855,-0.1454 -0.51978,-0.1563 -0.13428,-0.011 -0.25984,0 -0.3767,0.029 -0.0844,0.024 -0.2127,0.083 -0.38496,0.1747 l -0.77514,0.4143 1.19864,2.2428 z m -0.83962,-3.1788 1.43661,-0.7678 c 0.30546,-0.1632 0.52744,-0.3224 0.66594,-0.4777 0.1385,-0.1552 0.2154,-0.3262 0.23072,-0.513 0.0153,-0.1869 -0.0206,-0.3618 -0.10777,-0.5249 -0.12766,-0.2388 -0.31931,-0.3889 -0.57495,-0.4501 -0.25565,-0.061 -0.57065,0.01 -0.94502,0.2083 l -1.59852,0.8544 z"
         id="path11658" />
      <path
         d="m 209.6568,1375.9526 -1.77885,-5.4433 0.72032,-0.2354 0.73047,2.2353 2.82931,-0.9246 -0.73047,-2.2353 0.72033,-0.2354 1.77885,5.4433 -0.72032,0.2354 -0.83847,-2.5657 -2.82931,0.9246 0.83846,2.5657 z"
         id="path11660" />
      <path
         d="m 214.55554,1371.55 c -0.1323,-0.9413 0.0169,-1.7137 0.44745,-2.3173 0.4306,-0.6035 1.04561,-0.9615 1.84505,-1.0739 0.5235,-0.074 1.013,-0.015 1.46851,0.1762 0.4555,0.1911 0.82494,0.4949 1.10833,0.9113 0.28337,0.4164 0.46493,0.9083 0.54467,1.4757 0.0808,0.575 0.0371,1.1058 -0.1312,1.5923 -0.1683,0.4865 -0.4488,0.8763 -0.8415,1.1695 -0.39271,0.2932 -0.83533,0.4744 -1.32788,0.5437 -0.53382,0.075 -1.02903,0.013 -1.48562,-0.1857 -0.45659,-0.1988 -0.82455,-0.506 -1.10388,-0.9217 -0.27933,-0.4157 -0.45397,-0.8724 -0.52393,-1.3701 z m 0.77528,-0.097 c 0.0961,0.6834 0.35546,1.1959 0.77822,1.5376 0.42275,0.3416 0.91135,0.4734 1.4658,0.3955 0.56476,-0.079 1.00168,-0.3433 1.31077,-0.7917 0.30908,-0.4484 0.41233,-1.0376 0.30976,-1.7674 -0.0649,-0.4616 -0.19954,-0.8536 -0.40394,-1.1759 -0.20441,-0.3223 -0.47015,-0.5572 -0.79722,-0.7045 -0.32708,-0.1473 -0.67758,-0.1947 -1.0515,-0.1421 -0.53124,0.075 -0.96269,0.3213 -1.29436,0.7401 -0.33166,0.4187 -0.43751,1.0549 -0.31753,1.9084 z"
         id="path11662" />
      <path
         d="m 221.34768,1373.5635 -0.22895,-5.722 1.97108,-0.079 c 0.44496,-0.018 0.78562,0 1.022,0.041 0.33088,0.062 0.61607,0.1878 0.85557,0.3763 0.31204,0.2429 0.55081,0.5598 0.71631,0.9506 0.1655,0.3908 0.25845,0.8413 0.27886,1.3513 0.0174,0.4345 -0.0179,0.8217 -0.106,1.1614 -0.0881,0.3397 -0.20704,0.6227 -0.35697,0.8489 -0.14993,0.2262 -0.3167,0.4062 -0.50029,0.54 -0.18361,0.1337 -0.40747,0.2385 -0.67157,0.3142 -0.26412,0.076 -0.56921,0.1205 -0.91528,0.1343 z m 0.73019,-0.7056 1.22168,-0.049 c 0.3773,-0.015 0.67188,-0.062 0.88374,-0.1409 0.21186,-0.079 0.37899,-0.1845 0.5014,-0.3171 0.17235,-0.1868 0.30256,-0.4337 0.39061,-0.7409 0.0881,-0.3071 0.12343,-0.6767 0.10615,-1.1086 -0.024,-0.5985 -0.14058,-1.0545 -0.34989,-1.368 -0.20932,-0.3135 -0.45667,-0.5192 -0.74207,-0.6173 -0.20609,-0.07 -0.53421,-0.096 -0.98437,-0.078 l -1.20216,0.048 z"
         id="path11664" />
      <path
         d="m 227.14152,1373.3893 -0.2322,-5.7219 4.13722,-0.1679 0.0274,0.6752 -3.38004,0.1372 0.0711,1.7525 3.16537,-0.1285 0.0272,0.6713 -3.16537,0.1285 0.079,1.9476 3.51274,-0.1425 0.0274,0.6752 z"
         id="path11666" />
    </g>
    <path
       style="fill:none;stroke:#ffb400;stroke-width:2px;stroke-linecap:butt;stroke-linejoin:miter;stroke-opacity:1"
       d="m 298.99997,1316.9823 c 28.54134,1.4141 40.64592,6.9764 54,14"
       id="path11605"
       sodipodi:nodetypes="cc" />
    <g
       style="font-style:normal;font-weight:normal;font-size:8px;font-family:Arial;-inkscape-font-specification:Arial;fill:#003271;fill-opacity:1;stroke:none"
       id="text8025"
       transform="matrix(2,0,0,2,-252.99997,-1429.0177)">
      <path
         d="m 276.74816,1373.0388 0.33731,-5.7166 0.7565,0.045 -0.33732,5.7167 z"
         id="path11669" />
      <path
         d="m 278.75579,1371.2946 0.71754,0.01 c 0.006,0.2884 0.0616,0.53 0.16698,0.7247 0.10534,0.1947 0.28213,0.361 0.53036,0.499 0.24823,0.1379 0.53434,0.2226 0.85834,0.2541 0.2877,0.028 0.54587,0.01 0.7745,-0.054 0.22863,-0.064 0.40398,-0.1654 0.52604,-0.304 0.12205,-0.1386 0.19165,-0.296 0.2088,-0.4722 0.0174,-0.1789 -0.0193,-0.3401 -0.10996,-0.4836 -0.0907,-0.1436 -0.25087,-0.2723 -0.4805,-0.3863 -0.14713,-0.074 -0.47637,-0.2 -0.98772,-0.3766 -0.51135,-0.1766 -0.86657,-0.3309 -1.06568,-0.4628 -0.25829,-0.169 -0.44391,-0.3656 -0.55685,-0.5898 -0.11294,-0.2242 -0.15669,-0.4672 -0.13123,-0.729 0.028,-0.2877 0.13577,-0.5487 0.32339,-0.783 0.18761,-0.2342 0.44453,-0.4009 0.77076,-0.5 0.32623,-0.099 0.68114,-0.13 1.06475,-0.093 0.42249,0.041 0.78846,0.1454 1.09793,0.3128 0.30946,0.1675 0.53817,0.3919 0.68612,0.6731 0.14795,0.2813 0.21215,0.5897 0.1926,0.9254 l -0.72845,-0.016 c -0.004,-0.3641 -0.10892,-0.649 -0.31523,-0.8549 -0.20631,-0.2058 -0.52848,-0.33 -0.96651,-0.3726 -0.45619,-0.044 -0.79673,0.01 -1.02164,0.1538 -0.22491,0.1469 -0.34883,0.3383 -0.37177,0.5741 -0.0199,0.2048 0.0376,0.3804 0.17247,0.527 0.13229,0.1463 0.49819,0.3186 1.0977,0.5169 0.59951,0.1983 1.00826,0.3603 1.22628,0.4862 0.31689,0.1852 0.54299,0.4027 0.67829,0.6527 0.13529,0.2499 0.18807,0.5278 0.15833,0.8337 -0.0295,0.3032 -0.14411,0.5805 -0.34385,0.8319 -0.19975,0.2514 -0.46952,0.4358 -0.80929,0.5532 -0.33979,0.1174 -0.71315,0.1563 -1.12008,0.1167 -0.5158,-0.05 -0.94069,-0.1673 -1.27469,-0.3515 -0.334,-0.1843 -0.58545,-0.437 -0.75437,-0.7583 -0.16892,-0.3212 -0.24004,-0.6728 -0.21336,-1.0549 z"
         id="path11671" />
      <path
         d="m 284.12081,1373.7044 0.91966,-5.6522 0.74797,0.1217 -0.81112,4.9852 2.7837,0.453 -0.10852,0.667 z"
         id="path11673" />
      <path
         d="m 287.93478,1374.2896 3.54326,-5.0075 0.7912,0.2012 0.85946,6.1277 -0.83663,-0.2129 -0.21972,-1.8455 -2.32061,-0.5904 -1.03712,1.5258 z m 2.18113,-1.8716 1.88147,0.4787 -0.18818,-1.6843 c -0.0579,-0.5119 -0.0915,-0.9289 -0.10092,-1.251 -0.1612,0.3378 -0.35078,0.6658 -0.56874,0.9839 z"
         id="path11675" />
      <path
         d="m 293.70359,1375.8146 2.06147,-5.3427 0.72523,0.2799 1.18765,5.2774 1.61852,-4.1947 0.67785,0.2616 -2.06147,5.3426 -0.72523,-0.2798 -1.18624,-5.2811 -1.61992,4.1983 z"
         id="path11677" />
      <path
         d="m 299.06861,1377.9887 2.58612,-5.1094 1.76005,0.8909 c 0.39731,0.2011 0.68817,0.379 0.8726,0.5336 0.25865,0.2156 0.44668,0.464 0.5641,0.7452 0.15426,0.3641 0.20852,0.7572 0.16278,1.1791 -0.0457,0.422 -0.18387,0.8607 -0.41437,1.3161 -0.19641,0.388 -0.41577,0.7089 -0.65809,0.9628 -0.24233,0.2539 -0.48405,0.4431 -0.72515,0.5677 -0.24111,0.1246 -0.47441,0.2006 -0.6999,0.228 -0.2255,0.028 -0.47202,0.01 -0.73958,-0.053 -0.26756,-0.062 -0.55585,-0.1719 -0.86487,-0.3283 z m 0.98132,-0.2607 1.09088,0.5521 c 0.3369,0.1705 0.61707,0.273 0.84052,0.3072 0.22344,0.034 0.4209,0.023 0.59238,-0.033 0.24146,-0.079 0.47543,-0.2314 0.70189,-0.4568 0.22646,-0.2254 0.43731,-0.531 0.63253,-0.9167 0.27049,-0.5344 0.39064,-0.9895 0.36047,-1.3652 -0.0302,-0.3758 -0.14605,-0.6759 -0.34759,-0.9005 -0.14596,-0.1615 -0.41991,-0.3439 -0.82187,-0.5474 l -1.07346,-0.5433 z"
         id="path11679" />
    </g>
    <path
       style="fill:none;stroke:#ffb400;stroke-width:2px;stroke-linecap:butt;stroke-linejoin:miter;stroke-opacity:1"
       d="m 220.99997,1304.9823 c 22,-6 42,-6 64,0"
       id="path11616"
       sodipodi:nodetypes="cc" />
    <g
       style="font-style:normal;font-weight:normal;font-size:8px;font-family:Arial;-inkscape-font-specification:Arial;fill:#003271;fill-opacity:1;stroke:none"
       id="text11612"
       transform="matrix(2,0,0,2,-252.99997,-1429.0177)">
      <path
         d="m 236.92257,1365.0755 0.68219,-0.2225 c 0.0978,0.2714 0.22765,0.4825 0.38966,0.6333 0.16201,0.1509 0.38266,0.2521 0.66195,0.3035 0.27929,0.052 0.57748,0.04 0.89457,-0.033 0.28157,-0.065 0.52045,-0.165 0.71663,-0.2987 0.19619,-0.1338 0.32998,-0.2858 0.4014,-0.4561 0.0714,-0.1703 0.0871,-0.3417 0.047,-0.5142 -0.0406,-0.1751 -0.12686,-0.3161 -0.25865,-0.4232 -0.1318,-0.1071 -0.3247,-0.1779 -0.57868,-0.2125 -0.16322,-0.024 -0.51531,-0.037 -1.05628,-0.041 -0.54098,0 -0.92687,-0.037 -1.15766,-0.098 -0.29875,-0.078 -0.53744,-0.2047 -0.71608,-0.3811 -0.17863,-0.1764 -0.29769,-0.3927 -0.35718,-0.649 -0.0654,-0.2815 -0.0466,-0.5633 0.0564,-0.8452 0.10298,-0.2818 0.29322,-0.5218 0.57071,-0.7199 0.27749,-0.1981 0.60396,-0.3408 0.97939,-0.4279 0.41348,-0.096 0.79359,-0.1141 1.14033,-0.054 0.34673,0.06 0.63512,0.1994 0.86515,0.4187 0.23003,0.2193 0.38937,0.491 0.47803,0.8153 l -0.69537,0.2176 c -0.11992,-0.3437 -0.31049,-0.5802 -0.57173,-0.7094 -0.26124,-0.1291 -0.60621,-0.144 -1.03491,-0.044 -0.44646,0.1036 -0.7528,0.261 -0.91902,0.472 -0.16621,0.211 -0.22253,0.4319 -0.16893,0.6628 0.0465,0.2004 0.1571,0.3485 0.33172,0.4443 0.17209,0.096 0.57386,0.1428 1.2053,0.1392 0.63143,0 1.07054,0.02 1.31733,0.069 0.35944,0.074 0.64318,0.2083 0.85122,0.4019 0.20804,0.1937 0.3468,0.4402 0.4163,0.7395 0.0689,0.2968 0.0488,0.5962 -0.0601,0.8982 -0.10901,0.302 -0.30576,0.5629 -0.59025,0.7827 -0.28449,0.2197 -0.62587,0.3758 -1.02413,0.4683 -0.5048,0.1172 -0.94488,0.1418 -1.32022,0.074 -0.37534,-0.068 -0.69435,-0.2271 -0.95702,-0.4776 -0.26266,-0.2504 -0.44236,-0.5609 -0.53908,-0.9315 z"
         style="letter-spacing:-1.06474"
         id="path11682" />
      <path
         d="m 243.19775,1365.6098 -0.83212,-4.9818 -1.86094,0.3109 -0.11134,-0.6666 4.47704,-0.7478 0.11134,0.6666 -1.86865,0.3121 0.83212,4.9818 z"
         style="letter-spacing:-1.06474"
         id="path11684" />
      <path
         d="m 244.90893,1365.2754 1.63421,-5.9126 0.81257,-0.079 2.8874,5.4726 -0.85923,0.084 -0.83281,-1.6615 -2.38328,0.232 -0.45796,1.7871 z m 1.41681,-2.5005 1.93227,-0.1881 -0.74845,-1.5206 c -0.2281,-0.4618 -0.40122,-0.8427 -0.51936,-1.1425 -0.037,0.3725 -0.10408,0.7453 -0.20121,1.1185 z"
         style="letter-spacing:-1.06474"
         id="path11686" />
      <path
         d="m 251.25258,1364.7764 -0.12571,-5.0492 -1.88613,0.047 -0.0168,-0.6756 4.53766,-0.1129 0.0168,0.6756 -1.89394,0.047 0.1257,5.0492 z"
         style="letter-spacing:-1.06474"
         id="path11688" />
      <path
         d="m 253.63787,1364.7164 0.2762,-5.7199 4.1358,0.1997 -0.0326,0.675 -3.37888,-0.1631 -0.0846,1.7518 3.16429,0.1528 -0.0324,0.6711 -3.16428,-0.1528 -0.094,1.947 3.51153,0.1695 -0.0326,0.675 z"
         style="letter-spacing:-1.06474"
         id="path11690" />
      <path
         d="m 260.63907,1362.4046 c 0.16266,-0.9365 0.54144,-1.626 1.13635,-2.0685 0.59491,-0.4425 1.29005,-0.5947 2.08544,-0.4565 0.52085,0.09 0.96877,0.2964 1.34376,0.6179 0.37499,0.3216 0.63351,0.7239 0.77557,1.2072 0.14205,0.4833 0.16406,1.0071 0.066,1.5716 -0.0994,0.5721 -0.30374,1.064 -0.61308,1.4754 -0.30936,0.4115 -0.69587,0.6966 -1.15955,0.8552 -0.46368,0.1587 -0.94055,0.1955 -1.4306,0.1104 -0.53112,-0.092 -0.9835,-0.303 -1.35715,-0.6322 -0.37366,-0.3292 -0.6297,-0.7345 -0.76813,-1.2158 -0.13843,-0.4813 -0.16464,-0.9696 -0.0786,-1.4647 z m 0.76773,0.1452 c -0.1181,0.6799 -0.0283,1.2473 0.26935,1.702 0.29766,0.4548 0.72231,0.7301 1.27395,0.8259 0.5619,0.098 1.05869,-0.02 1.49037,-0.3517 0.43168,-0.3321 0.71057,-0.8611 0.83669,-1.5873 0.0798,-0.4592 0.0718,-0.8736 -0.0239,-1.2431 -0.0957,-0.3695 -0.27669,-0.6745 -0.54284,-0.915 -0.26616,-0.2405 -0.58526,-0.393 -0.95729,-0.4576 -0.52855,-0.092 -1.01486,0.011 -1.45892,0.3076 -0.44408,0.2969 -0.73986,0.8699 -0.88736,1.7192 z"
         style="letter-spacing:-1.06474"
         id="path11692" />
      <path
         d="m 265.49905,1366.1158 1.36643,-5.5611 3.75169,0.9218 -0.16125,0.6563 -3.01577,-0.741 -0.42316,1.7222 2.60987,0.6412 -0.16125,0.6563 -2.60987,-0.6413 -0.62077,2.5264 z"
         id="path11694" />
    </g>
    <path
       style="fill:none;stroke:#ffb400;stroke-width:2px;stroke-linecap:butt;stroke-linejoin:miter;stroke-opacity:1"
       d="m 226.99997,1568.9823 c 14,2 38,2 52,0"
       id="path11639"
       sodipodi:nodetypes="cc" />
    <g
       style="font-style:normal;font-weight:normal;font-size:8px;font-family:Arial;-inkscape-font-specification:Arial;fill:#003271;fill-opacity:1;stroke:none"
       id="text11641"
       transform="matrix(2,0,0,2,-252.99997,-1429.0177)">
      <path
         d="m 240.63098,1499.1182 0.54153,-5.7009 0.75442,0.072 -0.22238,2.341 2.96323,0.2815 0.22237,-2.3411 0.75442,0.072 -0.54153,5.7009 -0.75442,-0.072 0.25525,-2.6871 -2.96322,-0.2815 -0.25525,2.6872 z"
         style="letter-spacing:1.18305"
         id="path11649" />
      <path
         d="m 247.38285,1496.8676 c 0.0215,-0.9503 0.29339,-1.6885 0.81582,-2.2146 0.52242,-0.5261 1.18717,-0.78 1.99426,-0.7618 0.52851,0.012 1.0021,0.149 1.42077,0.4111 0.41867,0.2621 0.7342,0.6215 0.94661,1.0783 0.21239,0.4567 0.31213,0.9715 0.2992,1.5442 -0.0131,0.5806 -0.14199,1.0974 -0.38665,1.5503 -0.24467,0.4529 -0.58444,0.7923 -1.01934,1.0182 -0.4349,0.226 -0.90098,0.3333 -1.39825,0.3221 -0.53892,-0.012 -1.01763,-0.1532 -1.43612,-0.4232 -0.4185,-0.2699 -0.73201,-0.6325 -0.94053,-1.0879 -0.20853,-0.4553 -0.30712,-0.9342 -0.29577,-1.4367 z m 0.78078,0.029 c -0.0156,0.69 0.15765,1.2376 0.51969,1.6431 0.36203,0.4054 0.82293,0.6144 1.38268,0.627 0.57017,0.013 1.04397,-0.177 1.42143,-0.5696 0.37744,-0.3926 0.57448,-0.9573 0.59112,-1.6941 0.0105,-0.466 -0.0591,-0.8746 -0.20871,-1.2257 -0.14967,-0.3512 -0.374,-0.6258 -0.67298,-0.824 -0.299,-0.1982 -0.63724,-0.3016 -1.01475,-0.3101 -0.53632,-0.012 -1.00195,0.1616 -1.39689,0.5213 -0.39493,0.3597 -0.60213,0.9704 -0.62159,1.8321 z"
         style="letter-spacing:1.18305"
         id="path11651" />
      <path
         d="m 254.9533,1499.7533 -0.17666,-5.7238 2.15913,-0.067 c 0.38002,-0.012 0.67081,0 0.87236,0.028 0.28256,0.038 0.52088,0.1201 0.71495,0.2456 0.19407,0.1256 0.35267,0.3051 0.47582,0.5384 0.12314,0.2333 0.18908,0.4918 0.19785,0.7755 0.015,0.4867 -0.12715,0.9034 -0.42648,1.2501 -0.29935,0.3466 -0.85378,0.5324 -1.66329,0.5574 l -1.46805,0.045 0.0718,2.327 z m 0.66478,-3.0259 1.47977,-0.046 c 0.48935,-0.015 0.83402,-0.117 1.03403,-0.3055 0.20001,-0.1886 0.29491,-0.4481 0.28471,-0.7787 -0.007,-0.2395 -0.0742,-0.4426 -0.20053,-0.6093 -0.12631,-0.1668 -0.28921,-0.2744 -0.48872,-0.323 -0.12859,-0.03 -0.36467,-0.039 -0.70826,-0.029 l -1.46414,0.045 z"
         style="letter-spacing:1.18305"
         id="path11653" />
      <path
         d="m 261.49297,1499.492 -0.5572,-5.6994 4.12098,-0.4029 0.0657,0.6726 -3.36676,0.3292 0.17066,1.7455 3.15293,-0.3082 0.0654,0.6687 -3.15294,0.3082 0.18966,1.94 3.49894,-0.3421 0.0658,0.6726 z"
         style="letter-spacing:1.18305"
         id="path11655" />
    </g>
  </g>
</svg>
