<?xml version="1.0" encoding="UTF-8" standalone="no"?>
<!-- Created with Inkscape (http://www.inkscape.org/) -->

<svg
   xmlns:dc="http://purl.org/dc/elements/1.1/"
   xmlns:cc="http://creativecommons.org/ns#"
   xmlns:rdf="http://www.w3.org/1999/02/22-rdf-syntax-ns#"
   xmlns:svg="http://www.w3.org/2000/svg"
   xmlns="http://www.w3.org/2000/svg"
   xmlns:sodipodi="http://sodipodi.sourceforge.net/DTD/sodipodi-0.dtd"
   xmlns:inkscape="http://www.inkscape.org/namespaces/inkscape"
   xml:space="preserve"
   height="505"
   width="505"
   version="1.1"
   viewBox="0.75 -3.217 505 504.99999"
   id="svg2"
   inkscape:version="0.92.5 (2060ec1f9f, 2020-04-08)"
   sodipodi:docname="Coat of arms of Colorado.svg"><sodipodi:namedview
   pagecolor="#ffffff"
   bordercolor="#666666"
   borderopacity="1"
   objecttolerance="10"
   gridtolerance="10"
   guidetolerance="10"
   inkscape:pageopacity="0"
   inkscape:pageshadow="2"
   inkscape:window-width="1920"
   inkscape:window-height="1017"
   id="namedview506"
   showgrid="false"
   inkscape:zoom="2.3892926"
   inkscape:cx="269.97827"
   inkscape:cy="330.40958"
   inkscape:window-x="-8"
   inkscape:window-y="-8"
   inkscape:window-maximized="1"
   inkscape:current-layer="svg2"
   fit-margin-top="0"
   fit-margin-left="0"
   fit-margin-right="0"
   fit-margin-bottom="0" /><metadata
   id="metadata4"><rdf:RDF><cc:Work
       rdf:about=""><dc:format>image/svg+xml</dc:format><dc:type
         rdf:resource="http://purl.org/dc/dcmitype/StillImage" /><dc:title></dc:title></cc:Work></rdf:RDF></metadata><defs
   id="defs6"><inkscape:perspective
   sodipodi:type="inkscape:persp3d"
   inkscape:vp_x="0 : 391 : 1"
   inkscape:vp_y="0 : 1000 : 0"
   inkscape:vp_z="782 : 391 : 1"
   inkscape:persp3d-origin="391 : 260.66667 : 1"
   id="perspective508" />
			<inkscape:perspective
   id="perspective4120"
   inkscape:persp3d-origin="0.5 : 0.33333333 : 1"
   inkscape:vp_z="1 : 0.5 : 1"
   inkscape:vp_y="0 : 1000 : 0"
   inkscape:vp_x="0 : 0.5 : 1"
   sodipodi:type="inkscape:persp3d" /></defs>
<path
   inkscape:connector-curvature="0"
   d="m 252.27,435.07001 c 0,-51.927 -102.5,-0.039 -102.5,-108.04 0,-18 12.5,-35.961 12.5,-53.96 0,-36 -26,-63.039 -26,-63.039 l 35,-35.961 c 0,0 40.035,29.425 81,0 45.004,29.425 81,0 81,0 l 36,36 c 0,0 -27,27 -27,63 0,17.999 13.5,35.999 13.5,53.999 0,108 -102.5,57.188 -102.5,107.96"
   id="path300-0"
   style="fill:#ffffff;stroke:#000000;stroke-width:6;stroke-miterlimit:4;stroke-dasharray:none;stroke-opacity:1" /><path
   d="m 441.57,323.33001 c 0.04,2.069 0.08,10.779 -1.71,15.55 l -0.392,0.12 c -2.648,-3.528 -4.648,-8.261 -8.261,-10.96 0,0 -0.199,-0.898 -5.649,-2.09 -7.858,-0.551 -19.068,25.869 -23.148,25.189 -1.779,-0.302 -3.102,-0.92 -3.92,-1.852 -1.069,-1.221 -1.279,-2.99 -0.51,-5.3 5.108,-6.812 8.1,-24.721 8.17,-30.641 0.068,-5.921 -3.74,-24.171 -5.78,-32.682 -1.79,-7.42 4.3,-8.608 5.88,-8.8 23.24,10.916 17.68,29.575 35.32,51.466 z"
   id="path260"
   style="fill:#cccccc;fill-opacity:1;stroke:#000000;stroke-width:3;stroke-miterlimit:4;stroke-dasharray:none;stroke-opacity:1"
   inkscape:connector-curvature="0" /><path
   d="m 402.41,351.14001 c 4.08,0.68 15.29,-25.74 23.148,-25.189 5.45,1.189 5.649,2.09 5.649,2.09 l -1.069,1.95 c 0,0 -6.528,13.779 -20.29,31.63 l -11.521,-12.181 0.16,-0.149 c 0.823,0.929 2.144,1.549 3.923,1.849 z"
   id="path262"
   style="fill:#b3b3b3;stroke:#000000;stroke-width:3;stroke-miterlimit:4;stroke-dasharray:none;stroke-opacity:1"
   inkscape:connector-curvature="0" /><path
   d="m 408.54,271.82001 c 18.381,5.779 22.03,-10.931 31.66,-9.54 19.67,4.729 11.229,42.22 50.38,58.899 -18.38,-4.092 -26.55,-5.11 -35.399,-14.302 -3.75,6.812 4.42,23.149 14.642,39.83 -13.5,-8.05 -22.229,-15.898 -28.25,-23.38 -17.643,-21.888 -12.083,-40.547 -35.323,-51.457 -0.029,-0.021 -0.069,-0.03 -0.1,-0.05 z"
   id="path264"
   style="fill:#ffffff;stroke:#000000;stroke-width:3;stroke-miterlimit:4;stroke-dasharray:none;stroke-opacity:1"
   inkscape:connector-curvature="0" /><path
   d="m 97.12,355.15001 c -12.59,-19.279 -17.729,-34.159 -17.729,-34.159 l -1.07,-1.95 c 0,0 0.2,-0.898 5.65,-2.09 7.859,-0.551 19.06,25.869 23.149,25.189 1.58,-0.262 2.8,-0.78 3.63,-1.552 l 0.16,0.15 -13.37,14.14 z"
   id="path266"
   style="fill:#b3b3b3;fill-opacity:1;stroke:#000000;stroke-width:3;stroke-miterlimit:4;stroke-dasharray:none;stroke-opacity:1"
   inkscape:connector-curvature="0" /><path
   d="m 111.55,334.99001 c 0.83,2.5 0.521,4.369 -0.8,5.6 -0.83,0.771 -2.05,1.29 -3.63,1.552 -4.09,0.68 -15.29,-25.74 -23.149,-25.189 -5.45,1.189 -5.65,2.09 -5.65,2.09 -3.61,2.7 -5.61,7.432 -8.26,10.96 l -0.391,-0.12 c -1.79,-4.76 -1.75,-13.448 -1.71,-15.54 17.65,-21.89 12.08,-40.55 35.32,-51.47 1.58,0.189 7.67,1.38 5.88,8.8 -2.04,8.512 -5.86,26.762 -5.78,32.682 0.07,5.915 3.06,23.825 8.17,30.635 z"
   id="path268"
   style="fill:#cccccc;stroke:#000000;stroke-width:3;stroke-miterlimit:4;stroke-dasharray:none;stroke-opacity:1"
   inkscape:connector-curvature="0" /><path
   d="m 79.39,320.99001 c 0,0 5.14,14.88 17.729,34.159 23.13,35.46 71.42,85.811 159.11,85.811 78.591,0 128.32,-46.54 153.62,-79.34 13.762,-17.851 20.29,-31.63 20.29,-31.63 l 1.069,-1.95 c 3.61,2.7 5.61,7.432 8.261,10.96 0.739,0.979 1.53,1.87 2.432,2.602 5.448,4.43 18.71,7.68 18.72,16.351 -20.67,42 -102.73,122.1 -202.38,122.1 -121.99,0 -188.66,-89.1 -209.33,-131.1 0.01,-8.671 13.271,-11.921 18.72,-16.351 0.891,-0.729 1.69,-1.62 2.431,-2.602 2.649,-3.528 4.649,-8.261 8.26,-10.96 l 1.07,1.95 z"
   id="path270"
   style="fill:#ffffff;stroke:#000000;stroke-width:3;stroke-miterlimit:4;stroke-dasharray:none;stroke-opacity:1"
   inkscape:connector-curvature="0" /><path
   d="m 103.28,262.87001 c -23.24,10.92 -17.67,29.58 -35.32,51.47 -6.02,7.472 -14.75,15.32 -28.25,23.37 10.221,-16.68 18.391,-33.021 14.641,-39.83 -8.851,9.189 -17.021,10.21 -35.4,14.302 39.15,-16.682 30.71,-54.171 50.38,-58.899 9.63,-1.391 13.28,15.319 31.66,9.54 h 2.39 c -0.031,0.017 -0.071,0.027 -0.101,0.047 z"
   id="path272"
   style="fill:#ffffff;stroke:#000000;stroke-width:3;stroke-miterlimit:4;stroke-dasharray:none;stroke-opacity:1"
   inkscape:connector-curvature="0" /><path
   d="m 101.29,375.61001 5.396,5.371 -2.466,21.313 8.075,-8.108 c 0.797,-0.802 1.208,-1.67 1.234,-2.604 0.025,-0.938 -0.354,-1.851 -1.139,-2.74 l 1.089,-1.094 6.358,6.332 -1.089,1.094 c -0.98,-0.789 -1.881,-1.157 -2.699,-1.104 -0.817,0.052 -1.652,0.506 -2.504,1.36 l -13.523,13.582 -1.356,-1.353 2.94,-24.396 -9.462,9.503 c -1.084,1.089 -1.625,2.129 -1.622,3.121 0.002,0.992 0.372,1.854 1.107,2.588 l 0.293,0.293 -1.089,1.095 -7.016,-6.984 1.089,-1.095 0.481,0.479 c 0.688,0.687 1.539,0.987 2.555,0.907 1.015,-0.081 1.952,-0.553 2.81,-1.413 l 11.183,-11.229 c 0.174,-1.224 -0.146,-2.238 -0.959,-3.05 l -0.774,-0.771 z"
   id="path274"
   inkscape:connector-curvature="0" /><path
   d="m 120.1,393.96001 9.608,8.105 -1.002,1.188 -1.733,-1.463 c -0.372,-0.313 -0.704,-0.468 -0.997,-0.461 -0.293,0.005 -0.563,0.15 -0.805,0.438 l -12.244,14.516 c -0.286,0.338 -0.4,0.652 -0.345,0.945 0.071,0.378 0.322,0.749 0.752,1.111 l 1.544,1.303 -1.002,1.188 -9.608,-8.106 1.002,-1.188 1.474,1.242 c 0.508,0.43 0.938,0.646 1.288,0.651 0.351,0.007 0.665,-0.154 0.943,-0.484 l 12.105,-14.351 c 0.299,-0.354 0.425,-0.696 0.377,-1.026 -0.048,-0.328 -0.274,-0.666 -0.682,-1.009 l -1.678,-1.415 z"
   id="path276"
   inkscape:connector-curvature="0" /><path
   d="m 129.31,403.92001 0.895,-1.25 10.234,7.328 -0.896,1.25 -1.727,-1.235 c -0.495,-0.354 -0.909,-0.509 -1.242,-0.46 -0.333,0.047 -0.651,0.281 -0.955,0.704 l -10.641,14.861 c -0.434,0.604 -0.613,1.058 -0.544,1.357 0.068,0.301 0.455,0.704 1.156,1.207 l 2.876,2.061 c 1.07,0.766 2.435,0.973 4.091,0.617 1.655,-0.354 3.53,-1.472 5.627,-3.354 l 1.219,0.873 -5.937,7.332 -17.563,-12.574 0.895,-1.25 1.75,1.253 c 0.387,0.275 0.749,0.387 1.089,0.329 0.339,-0.057 0.638,-0.266 0.896,-0.625 l 10.941,-15.28 c 0.265,-0.369 0.354,-0.709 0.271,-1.021 -0.082,-0.313 -0.37,-0.645 -0.864,-0.997 z"
   id="path278"
   inkscape:connector-curvature="0" /><path
   d="m 184.56,435.78001 2.265,-1.435 1.078,0.445 -3.095,7.9 -1.375,-0.566 c 0.214,-2.552 -0.109,-4.659 -0.969,-6.326 -0.857,-1.668 -2.087,-2.83 -3.686,-3.489 -1.362,-0.563 -2.625,-0.647 -3.786,-0.259 -1.16,0.389 -1.955,1.101 -2.381,2.134 -0.254,0.613 -0.316,1.246 -0.189,1.896 0.126,0.65 0.489,1.313 1.092,1.985 0.602,0.673 1.762,1.595 3.479,2.762 2.006,1.37 3.353,2.412 4.041,3.128 1.088,1.144 1.766,2.34 2.029,3.59 0.264,1.252 0.106,2.577 -0.471,3.978 -0.863,2.097 -2.275,3.47 -4.233,4.12 -2.36,0.783 -4.828,0.646 -7.399,-0.415 -2.367,-0.977 -4.188,-2.69 -5.467,-5.147 l -2.722,1.498 -1.125,-0.465 3.467,-8.405 1.345,0.556 c -0.64,5.354 1.094,8.879 5.199,10.571 1.68,0.691 3.145,0.845 4.395,0.456 1.25,-0.39 2.114,-1.161 2.59,-2.316 0.333,-0.81 0.409,-1.571 0.227,-2.286 -0.184,-0.717 -0.634,-1.42 -1.354,-2.111 -0.395,-0.379 -1.438,-1.149 -3.135,-2.315 -2.275,-1.586 -3.829,-2.894 -4.657,-3.923 -0.828,-1.029 -1.316,-2.074 -1.467,-3.137 -0.149,-1.062 0.027,-2.205 0.535,-3.434 0.852,-2.065 2.24,-3.466 4.166,-4.196 1.928,-0.73 4.06,-0.614 6.396,0.35 2.244,0.922 3.981,2.542 5.207,4.856 z"
   id="path280"
   inkscape:connector-curvature="0" /><path
   d="m 189.94,435.76001 12,3.772 -0.462,1.47 -2.17,-0.683 c -0.465,-0.146 -0.832,-0.159 -1.102,-0.042 -0.271,0.118 -0.46,0.356 -0.572,0.717 l -5.71,18.153 c -0.134,0.424 -0.117,0.76 0.048,1.009 0.212,0.322 0.587,0.566 1.125,0.736 l 1.933,0.607 -0.462,1.469 -12,-3.772 0.462,-1.47 1.836,0.577 c 0.633,0.199 1.112,0.232 1.438,0.104 0.325,-0.131 0.552,-0.401 0.683,-0.813 l 5.646,-17.946 c 0.14,-0.442 0.123,-0.81 -0.048,-1.096 -0.171,-0.285 -0.51,-0.509 -1.017,-0.669 l -2.091,-0.655 z"
   id="path282"
   inkscape:connector-curvature="0" /><path
   d="m 201.94,439.89001 7.421,1.545 9.616,19.196 2.333,-11.207 c 0.229,-1.104 0.104,-2.057 -0.381,-2.854 -0.483,-0.797 -1.293,-1.354 -2.428,-1.668 l 0.313,-1.5 8.75,1.821 -0.313,1.5 c -1.254,-0.125 -2.21,0.059 -2.867,0.549 -0.658,0.489 -1.108,1.326 -1.354,2.508 l -3.906,18.761 -1.86,-0.389 -10.912,-22.041 -2.733,13.13 c -0.313,1.505 -0.196,2.673 0.349,3.503 0.545,0.829 1.326,1.352 2.346,1.563 l 0.407,0.085 -0.313,1.5 -9.656,-2.012 0.313,-1.5 0.664,0.139 c 0.95,0.197 1.827,-0.015 2.633,-0.635 0.805,-0.619 1.33,-1.523 1.577,-2.711 l 3.223,-15.474 c -0.516,-1.158 -1.334,-1.854 -2.459,-2.09 l -1.07,-0.224 z"
   id="path284"
   inkscape:connector-curvature="0" /><path
   d="m 226.75,444.99001 21.313,1.806 -0.257,8.604 -1.469,-0.125 c -0.171,-2.051 -0.475,-3.544 -0.911,-4.479 -0.438,-0.935 -1.054,-1.656 -1.849,-2.169 -0.795,-0.514 -1.863,-0.826 -3.209,-0.939 l -3.339,-0.283 c -0.52,-0.044 -0.901,0.026 -1.149,0.212 -0.249,0.185 -0.39,0.459 -0.419,0.822 l -0.721,8.498 1.146,0.098 c 1.317,0.111 2.372,-0.178 3.161,-0.866 0.789,-0.688 1.319,-1.858 1.595,-3.517 l 1.47,0.125 -0.967,11.406 -1.469,-0.125 c 0.062,-1.898 -0.242,-3.266 -0.908,-4.102 -0.666,-0.835 -1.734,-1.314 -3.208,-1.439 l -0.946,-0.08 -0.767,9.043 c -0.033,0.396 0.06,0.688 0.275,0.872 0.333,0.271 0.831,0.438 1.493,0.492 l 2.948,0.25 c 2.021,0.172 3.727,-0.335 5.115,-1.518 1.391,-1.184 2.351,-3.063 2.88,-5.644 l 1.47,0.125 -1.134,9.282 -22.219,-1.883 0.13,-1.531 2.198,0.188 c 0.496,0.042 0.884,-0.053 1.164,-0.284 0.279,-0.23 0.438,-0.563 0.476,-0.993 l 1.597,-18.841 c 0.034,-0.396 -0.07,-0.7 -0.313,-0.909 -0.243,-0.21 -0.701,-0.344 -1.373,-0.399 l -1.935,-0.164 z"
   id="path286"
   inkscape:connector-curvature="0" /><path
   d="m 276.02,446.26001 7.528,-1.149 15.701,14.635 -1.728,-11.307 c -0.171,-1.116 -0.621,-1.964 -1.354,-2.539 -0.729,-0.577 -1.684,-0.814 -2.854,-0.716 l -0.233,-1.53 8.844,-1.353 0.233,1.531 c -1.219,0.32 -2.05,0.825 -2.493,1.516 -0.444,0.689 -0.575,1.632 -0.394,2.823 l 2.895,18.941 -1.895,0.289 -17.904,-16.845 2.022,13.246 c 0.231,1.519 0.747,2.569 1.548,3.156 0.8,0.587 1.713,0.803 2.739,0.646 l 0.41,-0.063 0.232,1.53 -9.78,1.494 -0.233,-1.531 0.675,-0.103 c 0.965,-0.147 1.717,-0.652 2.258,-1.517 0.541,-0.865 0.722,-1.895 0.537,-3.094 l -2.389,-15.629 c -0.89,-0.891 -1.904,-1.248 -3.048,-1.073 l -1.088,0.168 z"
   id="path288"
   inkscape:connector-curvature="0" /><path
   d="m 300.76,442.57001 11.875,-3.421 0.422,1.47 -2.412,0.694 c -0.342,0.099 -0.574,0.289 -0.7,0.571 -0.126,0.285 -0.121,0.66 0.015,1.13 l 3.76,13.056 c 0.529,1.84 1.427,3.11 2.687,3.813 1.262,0.703 2.751,0.809 4.472,0.313 1.264,-0.363 2.332,-0.966 3.207,-1.806 0.637,-0.621 1.063,-1.464 1.279,-2.528 0.216,-1.064 0.122,-2.3 -0.282,-3.703 l -2.887,-10.021 c -0.367,-1.275 -0.929,-2.15 -1.683,-2.626 -0.754,-0.476 -1.61,-0.573 -2.569,-0.298 l -0.353,0.103 -0.422,-1.47 9,-2.593 0.422,1.47 -0.623,0.18 c -0.938,0.271 -1.55,0.83 -1.836,1.679 -0.286,0.85 -0.278,1.794 0.021,2.837 l 3.129,10.865 c 0.695,2.415 0.447,4.589 -0.744,6.521 -1.198,1.946 -3.217,3.328 -6.053,4.146 -2.029,0.585 -3.892,0.761 -5.586,0.527 -1.694,-0.23 -3.01,-0.779 -3.942,-1.646 -0.934,-0.864 -1.648,-2.159 -2.146,-3.883 l -3.818,-13.261 c -0.178,-0.616 -0.416,-1.006 -0.716,-1.168 -0.3,-0.159 -0.751,-0.153 -1.355,0.021 l -1.735,0.5 z"
   id="path290"
   inkscape:connector-curvature="0" /><path
   d="m 324.72,435.97001 9.006,-4.09 11.939,12.851 -1.782,-17.46 9.212,-4.183 0.639,1.406 -2.007,0.909 c -0.496,0.227 -0.797,0.473 -0.901,0.738 -0.104,0.265 -0.058,0.621 0.146,1.063 l 7.755,17.083 c 0.197,0.434 0.435,0.686 0.709,0.754 0.414,0.104 0.879,0.038 1.396,-0.195 l 1.777,-0.808 0.639,1.406 -11.375,5.162 -0.639,-1.405 2.148,-0.977 c 0.394,-0.179 0.644,-0.426 0.749,-0.739 0.105,-0.316 0.068,-0.672 -0.108,-1.063 l -8.304,-18.292 2.376,24.192 -1.331,0.604 -16.658,-17.93 7.419,16.343 c 0.426,0.938 1.07,1.57 1.938,1.901 0.865,0.331 1.889,0.301 3.068,-0.09 l 0.64,1.405 -8.298,3.768 -0.639,-1.406 c 1.008,-0.565 1.654,-1.305 1.941,-2.213 0.287,-0.908 0.203,-1.86 -0.249,-2.857 l -6.562,-14.452 c -0.278,-0.614 -0.569,-0.977 -0.874,-1.081 -0.304,-0.104 -0.757,-0.021 -1.361,0.255 l -1.771,0.804 z"
   id="path292"
   inkscape:connector-curvature="0" /><path
   d="m 352.48,422.80001 10.78,-6.468 0.797,1.328 -1.946,1.168 c -0.417,0.251 -0.67,0.517 -0.761,0.795 -0.09,0.28 -0.037,0.581 0.155,0.902 l 9.777,16.301 c 0.229,0.38 0.489,0.591 0.785,0.632 0.381,0.057 0.813,-0.063 1.297,-0.353 l 1.732,-1.04 0.797,1.328 -10.78,6.469 -0.797,-1.328 1.65,-0.99 c 0.568,-0.342 0.913,-0.678 1.031,-1.007 0.119,-0.329 0.066,-0.68 -0.154,-1.049 l -9.667,-16.114 c -0.239,-0.397 -0.521,-0.629 -0.851,-0.689 -0.328,-0.062 -0.719,0.044 -1.175,0.316 l -1.879,1.127 z"
   id="path294"
   inkscape:connector-curvature="0" /><path
   d="m 363.53,416.57001 6.116,-4.555 20.718,5.558 -6.832,-9.175 c -0.676,-0.905 -1.474,-1.438 -2.395,-1.604 -0.922,-0.163 -1.88,0.078 -2.876,0.725 l -0.92,-1.233 7.188,-5.354 0.92,1.233 c -0.925,0.854 -1.422,1.689 -1.49,2.507 -0.067,0.816 0.258,1.709 0.979,2.678 l 11.44,15.363 -1.527,1.138 -23.708,-6.485 8.012,10.758 c 0.917,1.231 1.867,1.92 2.853,2.063 0.983,0.144 1.895,-0.099 2.729,-0.72 l 0.334,-0.25 0.919,1.234 -7.953,5.923 -0.919,-1.233 0.545,-0.406 c 0.78,-0.581 1.206,-1.38 1.275,-2.396 0.07,-1.017 -0.258,-2.014 -0.983,-2.986 l -9.464,-12.711 c -1.184,-0.348 -2.235,-0.178 -3.159,0.511 l -0.879,0.655 z"
   id="path296"
   inkscape:connector-curvature="0" /><path
   d="m 383.84,401.35001 15.516,-14.725 6.245,5.894 -1.063,1.009 c -1.641,-1.229 -2.953,-1.988 -3.938,-2.278 -0.984,-0.29 -1.935,-0.308 -2.845,-0.052 -0.911,0.257 -1.855,0.85 -2.839,1.779 l -2.438,2.313 c -0.377,0.357 -0.579,0.691 -0.607,1.001 -0.026,0.31 0.084,0.595 0.335,0.858 l 5.857,6.174 0.83,-0.788 c 0.955,-0.905 1.438,-1.882 1.444,-2.926 0.006,-1.044 -0.515,-2.219 -1.567,-3.521 l 1.078,-1.022 7.857,8.28 -1.077,1.022 c -1.378,-1.307 -2.598,-1.988 -3.66,-2.049 -1.063,-0.062 -2.129,0.416 -3.196,1.43 l -0.687,0.65 6.253,6.589 c 0.273,0.289 0.553,0.414 0.836,0.374 0.425,-0.065 0.878,-0.329 1.359,-0.786 l 2.146,-2.034 c 1.47,-1.396 2.227,-3.004 2.268,-4.827 0.041,-1.822 -0.726,-3.787 -2.296,-5.896 l 1.077,-1.022 6.169,7.032 -16.155,15.332 -1.066,-1.125 1.599,-1.518 c 0.359,-0.342 0.547,-0.693 0.561,-1.058 0.014,-0.365 -0.129,-0.701 -0.426,-1.015 l -12.998,-13.696 c -0.272,-0.289 -0.569,-0.412 -0.889,-0.37 -0.318,0.042 -0.721,0.296 -1.209,0.759 l -1.404,1.334 z"
   id="path298"
   inkscape:connector-curvature="0" /><path
   d="m 252.27,435.07001 c 0,-51.927 -102.5,-0.039 -102.5,-108.04 0,-18 12.5,-35.961 12.5,-53.96 0,-36 -26,-63.039 -26,-63.039 l 35,-35.961 c 0,0 40.035,29.425 81,0 45.004,29.425 81,0 81,0 l 36,36 c 0,0 -27,27 -27,63 0,17.999 13.5,35.999 13.5,53.999 0,108 -102.5,57.188 -102.5,107.96"
   id="path300"
   style="fill:#ffffff;stroke:none"
   inkscape:connector-curvature="0" /><polygon
   points="444.87,376.07 450.06,375.49 461.6,393.95 461.47,394.11 448.91,384.31 438.77,385.62 432.61,378.82 421.81,378.92 421.79,377.22 436.21,358.18 "
   transform="translate(-138.5,-137.717)"
   id="polygon302"
   style="fill:#ffffff" /><polygon
   points="389.89,369.48 372.93,356.89 372.17,356.11 388.32,340.3 401.02,355.87 401.59,362.8 414.29,367.99 421.79,377.22 421.81,378.92 419.69,378.94 407.7,373.44 402.01,385.32 396.23,366.33 "
   transform="translate(-138.5,-137.717)"
   id="polygon304"
   style="fill:#ffffff" /><path
   d="m 224.09,227.76001 5.739,6.5 c -0.88,-0.66 -9.771,-7 -9.529,5.82 -1.24,4.789 -18.17,-7.141 -25.189,-7.5 -5.511,-0.28 -13.479,4.51 -16.631,6.58 l 14.801,-21.01 8.08,1.159 8.649,-7.5 z"
   id="path306"
   style="fill:#ffffff"
   inkscape:connector-curvature="0" /><path
   d="m 322.97,256.39001 0.13,-0.158 10.892,5.989 c -0.51,3.561 -0.8,7.189 -0.8,10.84 0,0.49 0.01,0.99 0.028,1.479 H 171.15 c 0.02,-0.488 0.04,-0.988 0.04,-1.479 0,-6.811 -1,-13.539 -2.57,-19.921 l 9.84,-13.969 c 0.011,0 0.011,-0.01 0.021,-0.01 3.149,-2.07 11.119,-6.86 16.63,-6.58 7.021,0.36 23.949,12.29 25.189,7.5 -0.24,-12.82 8.649,-6.48 9.529,-5.82 l -5.739,-6.5 9.579,-9.37 0.761,0.78 16.96,12.59 6.34,-3.149 5.779,18.989 5.689,-11.88 11.989,5.5 2.119,-0.021 10.801,-0.101 6.159,6.802 10.142,-1.312 z"
   id="path308"
   style="fill:#00427b"
   inkscape:connector-curvature="0" /><path
   d="m 178.46,239.18001 -9.841,13.97 c -5.899,-23.979 -19.93,-43.079 -19.93,-43.079 l 22.5,-22.5 c 0,0 44.239,26.479 81,0 40.368,26.479 81,0 81,0 l 22.5,22.5 c 0,0 -17.71,24.1 -21.7,52.159 l -10.892,-5.989 -11.54,-18.46 -5.188,0.58 -8.659,-17.891 -14.421,19.04 -7.5,-9.229 -12.699,-5.19 -0.57,-6.93 -12.698,-15.57 -16.149,15.81 -9.58,9.37 -14.08,-15.949 -8.649,7.5 -8.08,-1.16 -14.8,21.01 c -0.014,-0.003 -0.014,0.008 -0.024,0.008 z"
   id="path310"
   style="fill:#d72e39"
   inkscape:connector-curvature="0" /><path
   d="m 171.48,274.55001 h 162.07 c -0.022,-0.498 -0.037,-0.99 -0.037,-1.479 0,-32.39 22.5,-63 22.5,-63 l -22.5,-22.5 c 0,0 -40.622,26.472 -81,0 -36.754,26.473 -81,0 -81,0 l -22.5,22.5 c 0,0 22.5,30.61 22.5,63 0.002,0.487 -0.011,0.981 -0.036,1.479 z"
   id="path312"
   style="fill:none;stroke:#000000;stroke-width:3"
   inkscape:connector-curvature="0" /><path
   d="m 170.53,282.63001 c -3.333,14.326 -12.265,30.872 -12.265,43.879 0,95.934 74.565,53.968 94.548,85.674 20.684,-32.192 94.451,10.26 94.451,-85.674 0,-13.006 -8.933,-29.553 -12.266,-43.879 h -164.46 z"
   id="path314"
   style="fill:#ffd700;fill-opacity:1;stroke:#000000;stroke-width:3"
   inkscape:connector-curvature="0" /><polyline
   transform="translate(-138.5,-137.717)"
   points="307.3,391.07,332.11,355.88,340.19,357.03,348.84,349.53,362.92,365.48,374.81,378.96"
   id="polyline316"
   style="fill:none;stroke:#000000;stroke-width:3" /><polyline
   transform="translate(-138.5,-137.717)"
   points="473.47,400.3,461.93,393.96,450.39,375.49,445.2,376.07,436.54,358.18,422.12,377.22,414.62,367.99,401.92,362.8,401.35,355.88,388.65,340.3,362.92,365.48"
   id="polyline318"
   style="fill:none;stroke:#000000;stroke-width:3" /><path
   d="m 177.46,240.08001 c 0,0 10.979,-7.859 17.99,-7.5 7.011,0.359 23.946,12.295 25.188,7.5 -0.255,-13.489 9.595,-5.771 9.595,-5.771"
   id="path320"
   style="fill:none;stroke:#000000;stroke-width:2"
   inkscape:connector-curvature="0" /><polyline
   transform="translate(-138.5,-137.717)"
   points="373.26,356.9,390.22,369.48,396.56,366.34,402.34,385.32,408.03,373.44,420.02,378.94,432.94,378.82,439.1,385.63,449.24,384.31,462.09,394.34"
   id="polyline322"
   style="fill:none;stroke:#000000;stroke-width:2" /><path
   d="m 166.77,212.69001 c 0,0 0.241,-8.22 6.043,-4.956 5.197,-8.341 12.934,-1.571 12.934,-1.571 0,0 8.581,-3.868 9.669,1.571 7.253,-1.088 7.011,4.835 7.011,4.835 z"
   id="path324"
   style="fill:#ffffff;stroke:#000000;stroke-width:2"
   inkscape:connector-curvature="0" /><path
   d="m 263.82,212.45001 35.535,0.242 c 0,0 0,-7.856 -8.22,-5.076 -2.539,-7.615 -9.428,-0.967 -9.428,-0.967 0,0 -5.682,-8.099 -10.999,0.12 -5.316,-2.779 -6.888,5.681 -6.888,5.681 z"
   id="path326"
   style="fill:#ffffff;stroke:#000000;stroke-width:2"
   inkscape:connector-curvature="0" /><path
   d="m 302.5,218.49001 c 0,0 2.417,-8.823 7.252,-4.835 0.241,-4.109 6.043,-9.79 11.845,-3.747 4.594,-6.77 9.308,1.934 7.855,3.384 5.438,-7.252 7.614,0 7.252,0.483 6.891,-0.968 5.439,4.834 5.439,4.834 z"
   id="path328"
   style="fill:#ffffff;stroke:#000000;stroke-width:2"
   inkscape:connector-curvature="0" /><path
   d="m 289.4,387.99001 c -2.014,2.013 -5.09,2.198 -6.873,0.416 l -71.688,-71.688 c -1.783,-1.783 -1.599,-4.86 0.415,-6.874 2.014,-2.014 5.091,-2.198 6.874,-0.415 l 71.688,71.688 c 1.784,1.782 1.597,4.86 -0.416,6.873 z"
   id="path330"
   style="fill:#93652f;stroke:#000000;stroke-width:2"
   inkscape:connector-curvature="0" /><path
   d="m 300.7,309.85001 c 2.014,2.013 2.197,5.091 0.416,6.873 l -71.688,71.687 c -1.784,1.784 -4.859,1.599 -6.874,-0.414 -2.013,-2.013 -2.199,-5.091 -0.415,-6.874 l 71.687,-71.688 c 1.783,-1.783 4.862,-1.596 6.874,0.416 z"
   id="path332"
   style="fill:#93652f;stroke:#000000;stroke-width:2"
   inkscape:connector-curvature="0" /><path
   d="m 313.45,334.41001 c -4.024,4.025 -10.045,4.533 -13.441,1.137 l -25.155,-25.154 c -3.398,-3.397 -2.889,-9.417 1.139,-13.444 4.024,-4.023 10.044,-4.534 13.441,-1.138 l 25.155,25.156 c 3.396,3.396 2.888,9.417 -1.139,13.443 z"
   id="path334"
   style="fill:#ffffff;stroke:#000000;stroke-width:2"
   inkscape:connector-curvature="0" /><path
   d="m 186.48,342.78001 c 16.533,0.204 0,0.408 16.941,0.204 4.082,-31.229 19.187,-9.186 20.818,-11.43 1.227,-4.71 4.083,-7.96 8.775,-9.391 1.021,-2.041 -17.961,-22.451 22.043,-34.086 -21.225,-0.609 -61.026,17.761 -68.577,54.703 z"
   id="path336"
   style="fill:#ffffff;stroke:#000000;stroke-width:2"
   inkscape:connector-curvature="0" /><path
   d="M 251.85,53.040005"
   id="path388"
   style="fill:none;stroke:#d9ce3e;stroke-width:2"
   inkscape:connector-curvature="0" /><path
   style="color:#000000;font-style:normal;font-variant:normal;font-weight:normal;font-stretch:normal;font-size:medium;line-height:normal;font-family:sans-serif;font-variant-ligatures:normal;font-variant-position:normal;font-variant-caps:normal;font-variant-numeric:normal;font-variant-alternates:normal;font-feature-settings:normal;text-indent:0;text-align:start;text-decoration:none;text-decoration-line:none;text-decoration-style:solid;text-decoration-color:#000000;letter-spacing:normal;word-spacing:normal;text-transform:none;writing-mode:lr-tb;direction:ltr;text-orientation:mixed;dominant-baseline:auto;baseline-shift:baseline;text-anchor:start;white-space:normal;shape-padding:0;clip-rule:nonzero;display:inline;overflow:visible;visibility:visible;opacity:1;isolation:auto;mix-blend-mode:normal;color-interpolation:sRGB;color-interpolation-filters:linearRGB;solid-color:#000000;solid-opacity:1;vector-effect:none;fill:#ffd700;fill-opacity:1;fill-rule:nonzero;stroke:none;stroke-width:2;stroke-linecap:butt;stroke-linejoin:miter;stroke-miterlimit:4;stroke-dasharray:none;stroke-dashoffset:0;stroke-opacity:1;color-rendering:auto;image-rendering:auto;shape-rendering:auto;text-rendering:auto;enable-background:accumulate"
   d="M 236.41016 8.4277344 L 234.55078 9.1660156 L 251.49414 51.8125 L 251.35742 53.013672 L 251.68555 53.050781 L 250.79297 55.251953 L 252.64648 56.001953 L 253.25 54.511719 L 254.51953 54.007812 L 254.27539 53.392578 L 302.2832 17.083984 L 301.07617 15.488281 L 254.91602 50.402344 L 255.89844 47.980469 L 256.86328 48.769531 L 284.96484 14.419922 L 283.41602 13.154297 L 256.85156 45.626953 L 271.37695 9.7929688 L 269.52344 9.0410156 L 254.02344 47.279297 L 258.33398 9.5292969 L 256.3457 9.3027344 L 251.97461 47.603516 L 236.41016 8.4277344 z M 225.11914 12.060547 L 223.35938 13.011719 L 248.33984 59.222656 L 250.09961 58.271484 L 225.11914 12.060547 z M 209.4375 13.828125 L 207.82227 15.005859 L 239.41797 58.388672 L 184.87109 17.357422 L 183.66797 18.955078 L 243.44922 63.923828 L 244.0625 64.765625 L 234.96289 62.564453 L 160.35938 25.998047 L 159.48047 27.794922 L 225.98828 60.394531 L 135.17578 38.425781 L 134.70508 40.369141 L 234.27539 64.455078 L 236.28516 65.439453 L 106.93359 53.380859 L 106.74805 55.373047 L 235.72656 67.398438 L 83.650391 79.609375 L 83.810547 81.603516 L 224.49023 70.306641 L 52.267578 113.35742 L 52.751953 115.29688 L 236.63477 69.330078 L 239.2207 69.123047 L 239.21289 69.460938 L 38.445312 138.36133 L 39.09375 140.25195 L 242.63672 70.398438 L 234.63867 75.181641 L 23.369141 170.24414 L 24.189453 172.06836 L 219.80078 84.052734 L 10.777344 209.01758 L 11.802734 210.73438 L 235.56055 76.960938 L 238.42969 75.669922 L 31.310547 227.17969 L 32.490234 228.79297 L 247.23047 71.708984 L 248.19141 71.277344 L 249.14453 71.744141 L 249.66211 72.455078 L 250.03711 72.181641 L 253.7793 74.015625 L 254.66016 72.21875 L 250.4668 70.164062 L 250.37109 70.03125 L 251.61133 70.0625 L 251.74805 70.166016 L 251.82227 70.068359 L 258.39258 70.236328 L 268.29688 74.921875 L 286.26367 85.576172 L 465.25 246.83984 L 466.58984 245.35352 L 295.00391 90.759766 L 474.15039 196.99609 L 475.16992 195.27734 L 287.67969 84.091797 L 473.61328 172.06055 L 474.4668 170.25195 L 269.23828 73.15625 L 264.58203 70.394531 L 266.79102 70.451172 L 473.04492 151.47852 L 473.77539 149.61523 L 272.64062 70.599609 L 273.42383 70.621094 L 445.05859 115.29492 L 445.5625 113.35938 L 282.22852 70.845703 L 410.31445 74.117188 L 410.36523 72.117188 L 273.70898 68.626953 L 262.24805 65.644531 L 390.42578 57.253906 L 390.29492 55.259766 L 257.87109 63.925781 L 257.89648 63.908203 L 369.31055 43.5 L 368.94922 41.533203 L 261.39258 61.236328 L 343.25391 30.332031 L 342.54688 28.460938 L 259.17773 59.933594 L 319.09766 19.617188 L 317.98242 17.957031 L 251.87109 62.441406 L 249.79492 61.625 L 243.49023 57.886719 L 242.60938 59.375 L 209.4375 13.828125 z M 243.01367 59.929688 L 245.93555 61.662109 L 245.78125 62.058594 L 243.92383 61.179688 L 243.01367 59.929688 z M 247.50391 62.873047 L 248.55859 63.287109 L 248.53906 63.363281 L 247.50391 62.873047 z M 260.52734 67.990234 L 261.34766 68.3125 L 261.05859 68.304688 L 260.52734 67.990234 z M 356.60938 133.51562 L 355.41211 135.11719 L 461.57227 214.42773 L 462.76758 212.82617 L 356.60938 133.51562 z "
   id="line344"
   transform="translate(0.75,-3.217)" /><polygon
   transform="translate(-138.5,-137.717)"
   points="339.54,229.95 393.2,229.95 438.54,229.95 389.04,144.45 "
   id="polygon398"
   style="fill:#ffffff;stroke:#000000;stroke-width:3" /><polygon
   transform="translate(-138.5,-137.717)"
   points="389.04,166.95 357.54,220.95 420.54,220.95 "
   id="polygon400"
   style="fill:none;stroke:#000000;stroke-width:2" /><path
   d="m 262.75,64.040005 c 0.82,0.71 1.594,1.47 2.318,2.25 -0.345,1.17 -3.157,9.56 -13.021,9.56 -9.712,0 -11.229,-9.54 -11.418,-11.17 0.981,-0.97 2.03,-1.87 3.176,-2.64 l 0.077,0.12 c 0,0 1.907,9.979 8.709,9.979 6.802,0 10.064,-7.979 10.064,-7.979 z"
   id="path402"
   style="fill:#ffd700;fill-opacity:1"
   inkscape:connector-curvature="0" /><path
   d="m 262.75,64.040005 -0.095,0.12 c 0,0 -3.264,7.979 -10.064,7.979 -6.803,0 -8.709,-9.979 -8.709,-9.979 l -0.077,-0.12 c 2.396,-1.64 5.17,-2.73 8.509,-2.73 3.978,0.19 7.498,2.17 10.436,4.73 z"
   id="path404"
   inkscape:connector-curvature="0" /><path
   d="m 274.64,75.570005 c 0.104,0.279 0.171,0.439 0.189,0.5 -0.313,-0.59 -10.675,-24.65 -23.602,-23.61 -8.71,0.7 -13.346,8.01 -15.511,12.55 -2.176,4.57 -9.254,7.7 -9.254,7.7"
   id="path406"
   style="fill:none;stroke:#000000"
   inkscape:connector-curvature="0" /><path
   d="m 272.18,76.710005 c 0,0 -0.134,-0.3 -0.409,-0.81 -0.896,-1.721 -3.244,-5.881 -6.706,-9.61 -0.727,-0.78 -1.498,-1.54 -2.318,-2.25 -2.938,-2.56 -6.457,-4.54 -10.438,-4.73 -3.339,0 -6.114,1.091 -8.509,2.73 -1.146,0.77 -2.193,1.67 -3.176,2.64 -5.238,5.11 -8.615,12.03 -13.08,12.03"
   id="path408"
   style="fill:none;stroke:#000000"
   inkscape:connector-curvature="0" /><path
   d="m 265.11,66.150005 c 0,0 -0.012,0.05 -0.039,0.14 -0.345,1.17 -3.157,9.56 -13.021,9.56 -9.712,0 -11.229,-9.54 -11.418,-11.17 -0.011,-0.16 -0.021,-0.239 -0.021,-0.239"
   id="path410"
   style="fill:none;stroke:#000000"
   inkscape:connector-curvature="0" /><path
   d="m 262.65,64.160005 c 0,0 -3.264,7.979 -10.064,7.979 -6.803,0 -8.709,-9.979 -8.709,-9.979"
   id="path412"
   style="fill:none;stroke:#000000"
   inkscape:connector-curvature="0" /><path
   d="m 235.44,71.290005 c 6.534,8.56 15.787,7.99 15.787,7.99"
   id="path414"
   style="fill:none;stroke:#000000"
   inkscape:connector-curvature="0" /><path
   d="m 231.09,75.570005 c 3.262,5.42 6.802,3.71 6.802,3.71"
   id="path416"
   style="fill:none;stroke:#000000"
   inkscape:connector-curvature="0" /><path
   d="m 256.94,78.710005 c 0,0 4.627,1.14 4.627,-2.29 0,3.71 2.719,2.29 2.719,2.29 0,0 2.995,1.14 1.364,-5.14 2.994,5.42 4.902,4.85 4.902,4.85 l 1.088,-2.57 0.134,0.051 2.309,0.81"
   id="path418"
   style="fill:none;stroke:#000000"
   inkscape:connector-curvature="0" /><path
   d="m 253.04,61.690005 c 1.846,1.544 2.393,3.445 2.178,7.1 -0.214,3.654 3.72,-2.792 2.722,-6.311 -0.315,-0.626 -6.746,-2.331 -4.9,-0.789 z"
   id="path420"
   style="fill:#ffffff"
   inkscape:connector-curvature="0" /><path
   d="m 371.45,135.56001 c 1.505,-0.493 2.627,-2.297 2.627,-4.463 0,-2.485 -1.476,-4.498 -3.315,-4.591 1.34,-0.624 2.307,-2.321 2.307,-4.339 0,-2.545 -1.528,-4.609 -3.416,-4.609 h -1.902 c 1.307,-0.64 2.247,-2.323 2.247,-4.32 0,-2.545 -1.521,-4.609 -3.392,-4.609 h -219.22 c -1.873,0 -3.393,2.064 -3.393,4.609 0,2.545 1.52,4.608 3.393,4.608 h 0.396 c -1.315,0.641 -2.264,2.324 -2.264,4.321 0,2.014 0.964,3.707 2.297,4.334 -1.855,0.075 -3.345,2.097 -3.345,4.596 0,2.319 1.286,4.221 2.953,4.543 -1.407,0.578 -2.438,2.313 -2.438,4.388 0,1.998 0.953,3.682 2.279,4.32 h -0.409 c -1.886,0 -3.416,2.063 -3.416,4.609 0,2.073 1.021,3.806 2.417,4.385 -1.648,0.313 -2.922,2.219 -2.922,4.544 0,2.545 1.519,4.609 3.392,4.609 h 219.22 c 1.875,0 3.394,-2.064 3.394,-4.609 0,-1.998 -0.939,-3.682 -2.247,-4.32 h 0.882 c 1.889,0 3.417,-2.064 3.417,-4.609 0,-1.997 -0.946,-3.681 -2.266,-4.321 h 1.914 c 1.898,0 3.438,-2.063 3.438,-4.608 0.001,-2.17 -1.119,-3.977 -2.626,-4.468 z"
   id="path424"
   style="fill:#ffffff;stroke:#000000;stroke-width:2"
   inkscape:connector-curvature="0" /><path
   d="m 412.09,128.43001 14.993,7.18 c 0,0 -14.993,8.074 -14.993,7.84 0,-5.632 -11.289,-5.632 -11.289,-1.877 v -11.265 c 0,3.754 11.289,3.754 11.289,-1.878 z"
   id="path426"
   style="fill:#906627;stroke:#000000;stroke-width:2"
   inkscape:connector-curvature="0" /><path
   d="m 402.96,136.07001 c 0,3.176 -2.361,5.75 -5.275,5.75 h -287.45 c -2.914,0 -5.276,-2.574 -5.276,-5.75 0,-3.177 2.362,-5.75 5.276,-5.75 h 287.44 c 2.914,0 5.276,2.574 5.276,5.75 z"
   id="path428"
   style="fill:#93652f;stroke:#000000;stroke-width:2"
   inkscape:connector-curvature="0" /><path
   d="m 387.27,146.93001 8.897,17.8 8.9,-17.8 c 0,0 -17.8,-35.598 26.698,-53.396005 -17.8,-17.8 -53.397,-17.8 -71.196,0 44.499,17.798005 26.701,53.396005 26.701,53.396005 z"
   id="path430"
   style="fill:#cccccc;fill-opacity:1;stroke:#000000;stroke-width:1.5;stroke-miterlimit:4;stroke-dasharray:none"
   inkscape:connector-curvature="0" /><path
   d="m 402.96,136.07001 c 0,3.176 -2.361,5.75 -5.275,5.75 h -287.45 c -2.914,0 -5.276,-2.574 -5.276,-5.75 0,-3.177 2.362,-5.75 5.276,-5.75 h 287.44 c 2.914,0 5.276,2.574 5.276,5.75 z"
   id="path432"
   style="fill:none;stroke:#000000;stroke-width:2"
   inkscape:connector-curvature="0" /><path
   d="m 362.58,113.02001 c 0,2.257 -1.476,4.088 -3.295,4.088 h -212.91 c -1.819,0 -3.295,-1.831 -3.295,-4.088 0,-2.259 1.476,-4.089 3.295,-4.089 h 212.91 c 1.819,0 3.295,1.831 3.295,4.089 z"
   id="path434"
   style="fill:#ffffff;stroke:#000000;stroke-width:2"
   inkscape:connector-curvature="0" /><path
   d="m 359.08,121.97001 c 0,2.258 -1.484,4.088 -3.316,4.088 h -214.36 c -1.832,0 -3.317,-1.83 -3.317,-4.088 0,-2.258 1.485,-4.088 3.317,-4.088 h 214.36 c 1.833,-10e-4 3.318,1.83 3.318,4.088 z"
   id="path436"
   style="fill:#ffffff;stroke:#000000;stroke-width:2"
   inkscape:connector-curvature="0" /><path
   d="m 358.08,130.91001 c 0,2.258 -1.499,4.088 -3.348,4.088 h -216.3 c -1.85,0 -3.349,-1.831 -3.349,-4.088 0,-2.258 1.499,-4.088 3.349,-4.088 h 216.3 c 1.848,0 3.347,1.831 3.347,4.088 z"
   id="path438"
   style="fill:#ffffff;stroke:#000000;stroke-width:2"
   inkscape:connector-curvature="0" /><path
   d="m 357.58,139.85001 c 0,2.259 -1.495,4.089 -3.34,4.089 H 138.42 c -1.845,0 -3.34,-1.831 -3.34,-4.089 0,-2.258 1.495,-4.088 3.34,-4.088 h 215.82 c 1.845,0 3.34,1.831 3.34,4.088 z"
   id="path440"
   style="fill:#ffffff;stroke:#000000;stroke-width:2"
   inkscape:connector-curvature="0" /><path
   d="m 359.08,148.79001 c 0,2.258 -1.484,4.088 -3.316,4.088 h -214.36 c -1.832,0 -3.317,-1.831 -3.317,-4.088 0,-2.258 1.485,-4.088 3.317,-4.088 h 214.36 c 1.833,0 3.318,1.83 3.318,4.088 z"
   id="path442"
   style="fill:#ffffff;stroke:#000000;stroke-width:2"
   inkscape:connector-curvature="0" /><path
   d="m 360.58,157.74001 c 0,2.258 -1.476,4.088 -3.295,4.088 h -212.91 c -1.819,0 -3.295,-1.831 -3.295,-4.088 0,-2.258 1.476,-4.088 3.295,-4.088 h 212.91 c 1.819,0 3.295,1.831 3.295,4.088 z"
   id="path444"
   style="fill:#ffffff;stroke:#000000;stroke-width:2"
   inkscape:connector-curvature="0" /><path
   d="m 216.52,101.59001 c 15.26,-9.056005 25.169,6.791 25.169,6.791 l -32.304,0.406 z"
   id="path446"
   inkscape:connector-curvature="0" /><path
   d="m 170.58,101.59001 c -15.354,-9.057005 -25.326,6.79 -25.326,6.79 l 32.506,0.406 z"
   id="path448"
   inkscape:connector-curvature="0" /><path
   d="m 234.81,162.44001 -61.558,-61.558 c -13.815,-7.517005 -21.536,2.438 -21.536,2.438 l 57.698,57.494 c 11.783,10.362 25.396,1.626 25.396,1.626 z"
   id="path450"
   style="fill:#cccccc;fill-opacity:1;stroke:#000000;stroke-width:2"
   inkscape:connector-curvature="0" /><path
   d="m 338.08,101.59001 c 15.261,-9.056005 25.168,6.791 25.168,6.791 l -32.303,0.406 z"
   id="path452"
   inkscape:connector-curvature="0" /><path
   d="m 292.14,101.59001 c -15.354,-9.056005 -25.326,6.791 -25.326,6.791 l 32.507,0.406 z"
   id="path454"
   inkscape:connector-curvature="0" /><path
   d="m 356.37,162.44001 -61.558,-61.558 c -13.814,-7.517005 -21.535,2.438 -21.535,2.438 l 57.697,57.494 c 11.786,10.362 25.396,1.626 25.396,1.626 z"
   id="path456"
   style="fill:#cccccc;fill-opacity:1;stroke:#000000;stroke-width:2"
   inkscape:connector-curvature="0" /><path
   d="m 273.69,162.44001 61.56,-61.558 c 13.813,-7.517005 21.535,2.438 21.535,2.438 l -57.698,57.494 c -11.784,10.362 -25.397,1.626 -25.397,1.626 z"
   id="path458"
   style="fill:#00427b;stroke:#000000;stroke-width:2"
   inkscape:connector-curvature="0" /><path
   d="m 245.25,160.53001 v -57.109 c 0,-8.786005 18,-8.786005 18,0 v 57.109 c 0,8.785 -18,8.785 -18,0 z"
   id="path460"
   style="fill:#cccccc;fill-opacity:1;stroke:#000000;stroke-width:2"
   inkscape:connector-curvature="0" /><path
   d="m 293.87,156.30001 1.465,-0.646 c 0.572,0.901 0.838,1.714 0.796,2.438 -0.043,0.725 -0.346,1.365 -0.904,1.925 -0.702,0.704 -1.545,1.004 -2.522,0.898 -1.127,-0.122 -2.224,-0.713 -3.282,-1.775 -1.121,-1.122 -1.747,-2.253 -1.875,-3.393 -0.109,-0.99 0.207,-1.857 0.948,-2.6 0.604,-0.605 1.317,-0.905 2.14,-0.898 0.584,0.003 1.232,0.227 1.945,0.67 l -0.763,1.393 c -0.427,-0.287 -0.837,-0.425 -1.229,-0.409 -0.396,0.015 -0.731,0.161 -1.011,0.438 -0.396,0.398 -0.549,0.896 -0.453,1.494 0.095,0.597 0.541,1.294 1.339,2.092 0.826,0.827 1.537,1.293 2.133,1.397 0.594,0.104 1.087,-0.04 1.479,-0.432 0.287,-0.286 0.423,-0.646 0.409,-1.078 -0.016,-0.432 -0.222,-0.935 -0.615,-1.514 z"
   id="path462"
   inkscape:connector-curvature="0" /><path
   d="m 294.8,153.72001 c -0.782,-0.784 -1.313,-1.545 -1.588,-2.284 -0.274,-0.738 -0.351,-1.418 -0.226,-2.041 0.126,-0.621 0.455,-1.198 0.986,-1.73 0.771,-0.772 1.695,-1.106 2.771,-1.003 1.076,0.103 2.157,0.699 3.246,1.787 1.101,1.101 1.703,2.218 1.808,3.351 0.097,0.999 -0.244,1.886 -1.02,2.661 -0.779,0.781 -1.667,1.126 -2.661,1.036 -1.131,-0.106 -2.236,-0.698 -3.316,-1.777 z m 1.082,-1.173 c 0.756,0.756 1.465,1.179 2.129,1.271 0.666,0.092 1.209,-0.075 1.634,-0.499 0.428,-0.428 0.594,-0.968 0.499,-1.623 -0.096,-0.655 -0.529,-1.371 -1.307,-2.148 -0.763,-0.762 -1.461,-1.188 -2.101,-1.279 -0.638,-0.091 -1.176,0.084 -1.618,0.526 -0.44,0.441 -0.617,0.985 -0.527,1.63 0.09,0.645 0.52,1.353 1.291,2.122 z"
   id="path464"
   inkscape:connector-curvature="0" /><path
   d="m 304.16,150.87001 -6.58,-6.58 1.063,-1.062 6.598,2.19 -4.394,-4.395 1.017,-1.017 6.58,6.58 -1.099,1.097 -6.458,-2.122 4.29,4.29 z"
   id="path466"
   inkscape:connector-curvature="0" /><path
   d="m 307.17,143.57001 0.938,-1.193 c 0.959,0.721 1.77,0.75 2.432,0.088 0.328,-0.328 0.5,-0.671 0.517,-1.031 0.017,-0.359 -0.104,-0.667 -0.356,-0.92 -0.147,-0.148 -0.31,-0.244 -0.479,-0.283 -0.169,-0.038 -0.354,-0.023 -0.559,0.042 -0.201,0.067 -0.641,0.28 -1.314,0.64 -0.604,0.324 -1.098,0.511 -1.477,0.562 -0.381,0.052 -0.768,0.007 -1.162,-0.134 -0.395,-0.14 -0.745,-0.364 -1.054,-0.672 -0.357,-0.358 -0.6,-0.762 -0.725,-1.213 -0.123,-0.45 -0.114,-0.893 0.025,-1.326 0.142,-0.434 0.424,-0.862 0.846,-1.284 0.636,-0.635 1.304,-0.958 2.002,-0.972 0.7,-0.013 1.381,0.29 2.04,0.908 l -1.026,1.148 c -0.401,-0.305 -0.75,-0.446 -1.051,-0.43 -0.299,0.019 -0.596,0.175 -0.891,0.468 -0.294,0.294 -0.459,0.581 -0.494,0.862 -0.037,0.28 0.033,0.511 0.215,0.691 0.179,0.179 0.399,0.257 0.666,0.235 0.266,-0.021 0.729,-0.217 1.396,-0.586 0.707,-0.387 1.271,-0.614 1.688,-0.683 0.418,-0.069 0.83,-0.029 1.234,0.118 0.405,0.148 0.807,0.42 1.2,0.814 0.569,0.571 0.875,1.227 0.912,1.967 0.038,0.74 -0.316,1.483 -1.064,2.23 -1.321,1.323 -2.809,1.307 -4.459,-0.046 z"
   id="path468"
   inkscape:connector-curvature="0" /><path
   d="m 315.82,139.20001 -5.465,-5.463 -1.603,1.602 -1.115,-1.116 4.286,-4.287 1.116,1.116 -1.598,1.597 5.464,5.464 z"
   id="path470"
   inkscape:connector-curvature="0" /><path
   d="m 319.18,135.84001 -6.579,-6.58 1.09,-1.088 6.578,6.58 z"
   id="path472"
   inkscape:connector-curvature="0" /><path
   d="m 322.52,132.50001 -5.465,-5.463 -1.603,1.602 -1.115,-1.116 4.287,-4.286 1.114,1.115 -1.597,1.598 5.464,5.463 z"
   id="path474"
   inkscape:connector-curvature="0" /><path
   d="m 319.33,122.53001 1.089,-1.088 3.562,3.561 c 0.553,0.553 0.927,0.899 1.12,1.041 0.339,0.242 0.678,0.353 1.018,0.329 0.339,-0.022 0.657,-0.182 0.953,-0.478 0.251,-0.251 0.398,-0.513 0.445,-0.782 0.048,-0.271 0,-0.535 -0.141,-0.792 -0.142,-0.257 -0.539,-0.713 -1.193,-1.368 l -3.637,-3.637 1.088,-1.088 3.455,3.454 c 0.883,0.883 1.474,1.568 1.772,2.057 0.298,0.486 0.403,1.018 0.317,1.593 -0.088,0.574 -0.401,1.132 -0.942,1.673 -0.563,0.563 -1.104,0.901 -1.62,1.014 -0.518,0.114 -1.029,0.06 -1.538,-0.165 -0.51,-0.226 -1.256,-0.829 -2.239,-1.813 z"
   id="path476"
   inkscape:connector-curvature="0" /><path
   d="m 332.57,122.45001 -5.464,-5.463 -1.604,1.602 -1.115,-1.116 4.287,-4.287 1.114,1.116 -1.596,1.598 5.463,5.463 z"
   id="path478"
   inkscape:connector-curvature="0" /><path
   d="m 335.93,119.10001 -6.579,-6.58 1.088,-1.088 6.58,6.58 z"
   id="path480"
   inkscape:connector-curvature="0" /><path
   d="m 334.59,113.94001 c -0.783,-0.783 -1.313,-1.545 -1.589,-2.283 -0.274,-0.739 -0.35,-1.418 -0.225,-2.041 0.126,-0.622 0.454,-1.199 0.986,-1.731 0.771,-0.771 1.694,-1.105 2.771,-1.003 1.076,0.104 2.157,0.699 3.246,1.787 1.101,1.101 1.703,2.218 1.807,3.351 0.097,0.999 -0.243,1.887 -1.018,2.661 -0.781,0.781 -1.668,1.126 -2.661,1.036 -1.133,-0.105 -2.238,-0.697 -3.317,-1.777 z m 1.082,-1.172 c 0.756,0.756 1.465,1.18 2.129,1.271 0.666,0.092 1.209,-0.075 1.633,-0.499 0.429,-0.427 0.595,-0.967 0.5,-1.623 -0.097,-0.656 -0.528,-1.371 -1.308,-2.148 -0.762,-0.762 -1.461,-1.188 -2.1,-1.278 -0.638,-0.092 -1.177,0.084 -1.617,0.525 -0.441,0.442 -0.619,0.985 -0.528,1.63 0.09,0.645 0.519,1.352 1.291,2.122 z"
   id="path482"
   inkscape:connector-curvature="0" /><path
   d="m 343.94,111.08001 -6.58,-6.58 1.063,-1.061 6.597,2.189 -4.394,-4.394 1.017,-1.018 6.58,6.579 -1.099,1.098 -6.458,-2.123 4.29,4.291 z"
   id="path484"
   inkscape:connector-curvature="0" /><path
   d="m 152.13,162.44001 61.559,-61.558 c 13.815,-7.517005 21.535,2.438 21.535,2.438 l -57.697,57.494 c -11.785,10.362 -25.397,1.626 -25.397,1.626 z"
   id="path486"
   style="fill:#d72e39;stroke:#000000;stroke-width:2"
   inkscape:connector-curvature="0" /><path
   d="m 180.43,140.43001 1.088,-1.088 3.562,3.562 c 0.554,0.552 0.928,0.898 1.121,1.041 0.338,0.242 0.677,0.351 1.017,0.329 0.339,-0.023 0.656,-0.183 0.953,-0.479 0.251,-0.251 0.399,-0.512 0.446,-0.783 0.046,-0.271 -10e-4,-0.534 -0.142,-0.792 -0.141,-0.257 -0.539,-0.713 -1.192,-1.367 l -3.637,-3.638 1.088,-1.088 3.455,3.455 c 0.883,0.882 1.474,1.567 1.772,2.055 0.299,0.487 0.404,1.019 0.317,1.594 -0.087,0.573 -0.4,1.132 -0.942,1.673 -0.563,0.563 -1.103,0.899 -1.62,1.014 -0.517,0.115 -1.029,0.059 -1.539,-0.166 -0.509,-0.225 -1.255,-0.829 -2.238,-1.813 z"
   id="path488"
   inkscape:connector-curvature="0" /><path
   d="m 192.61,141.41001 -6.58,-6.58 1.063,-1.063 6.598,2.19 -4.395,-4.394 1.018,-1.018 6.578,6.579 -1.097,1.097 -6.458,-2.123 4.291,4.291 z"
   id="path490"
   inkscape:connector-curvature="0" /><path
   d="m 198.14,135.89001 -6.58,-6.58 1.089,-1.088 6.579,6.58 z"
   id="path492"
   inkscape:connector-curvature="0" /><path
   d="m 196.94,130.59001 c -0.783,-0.784 -1.313,-1.545 -1.588,-2.284 -0.274,-0.738 -0.35,-1.418 -0.225,-2.041 0.126,-0.622 0.455,-1.198 0.987,-1.731 0.771,-0.771 1.695,-1.105 2.771,-1.002 1.074,0.103 2.156,0.699 3.246,1.787 1.101,1.101 1.702,2.218 1.808,3.351 0.097,1 -0.243,1.886 -1.02,2.661 -0.78,0.781 -1.667,1.126 -2.66,1.037 -1.133,-0.107 -2.24,-0.699 -3.319,-1.778 z m 1.081,-1.173 c 0.757,0.756 1.467,1.179 2.131,1.27 0.664,0.093 1.209,-0.074 1.633,-0.499 0.427,-0.427 0.593,-0.968 0.499,-1.622 -0.095,-0.656 -0.529,-1.371 -1.307,-2.148 -0.762,-0.762 -1.461,-1.188 -2.1,-1.279 -0.637,-0.091 -1.177,0.084 -1.618,0.526 -0.442,0.442 -0.618,0.985 -0.528,1.63 0.09,0.645 0.52,1.352 1.29,2.122 z"
   id="path494"
   inkscape:connector-curvature="0" /><path
   d="m 206.43,127.60001 -6.58,-6.58 1.063,-1.061 6.598,2.189 -4.395,-4.394 1.018,-1.017 6.579,6.58 -1.097,1.097 -6.458,-2.123 4.29,4.29 z"
   id="path496"
   inkscape:connector-curvature="0" /><path
   d="m 258.67,137.71001 v 1.668 l -2.103,0.662 v 3.061 l 2.103,0.628 v 1.639 l -9.306,-2.96 v -1.64 z m -3.681,2.829 -3.454,1.058 3.454,1.032 z"
   id="path498"
   inkscape:connector-curvature="0" /><path
   d="m 258.67,136.68001 h -9.306 v -1.5 l 6.214,-3.117 h -6.214 v -1.438 h 9.306 v 1.552 l -6.067,3.065 h 6.067 z"
   id="path500"
   inkscape:connector-curvature="0" /><path
   d="m 249.36,128.82001 v -2.81 c 0,-0.71 0.079,-1.246 0.237,-1.606 0.158,-0.361 0.427,-0.694 0.804,-0.999 0.377,-0.306 0.865,-0.543 1.466,-0.716 0.603,-0.174 1.349,-0.261 2.24,-0.261 0.806,0 1.504,0.092 2.099,0.273 0.595,0.181 1.064,0.412 1.412,0.691 0.348,0.278 0.608,0.615 0.783,1.011 0.176,0.395 0.265,0.902 0.265,1.523 v 2.892 z m 1.578,-1.539 h 6.147 v -1.151 c 0,-0.493 -0.046,-0.851 -0.141,-1.072 -0.093,-0.221 -0.231,-0.401 -0.421,-0.544 -0.188,-0.141 -0.483,-0.258 -0.891,-0.351 -0.406,-0.093 -0.938,-0.139 -1.603,-0.139 -0.688,0 -1.229,0.047 -1.628,0.143 -0.396,0.095 -0.709,0.242 -0.938,0.443 -0.229,0.199 -0.378,0.443 -0.449,0.729 -0.056,0.215 -0.082,0.63 -0.082,1.246 v 0.695 z"
   id="path502"
   inkscape:connector-curvature="0" />
</svg>