<?xml version="1.0" encoding="UTF-8" standalone="no"?>
<svg
   xmlns:dc="http://purl.org/dc/elements/1.1/"
   xmlns:cc="http://creativecommons.org/ns#"
   xmlns:rdf="http://www.w3.org/1999/02/22-rdf-syntax-ns#"
   xmlns:svg="http://www.w3.org/2000/svg"
   xmlns="http://www.w3.org/2000/svg"
   xmlns:xlink="http://www.w3.org/1999/xlink"
   xmlns:sodipodi="http://sodipodi.sourceforge.net/DTD/sodipodi-0.dtd"
   xmlns:inkscape="http://www.inkscape.org/namespaces/inkscape"
   version="1.1"
   width="400"
   height="400"
   id="svg2"
   inkscape:version="0.48.2 r9819"
   sodipodi:docname="Seal of europe.svg"
   inkscape:export-filename="C:\Users\Daniel\Desktop\Flag_of_Europe.png"
   inkscape:export-xdpi="148.79845"
   inkscape:export-ydpi="148.79845">
  <metadata
     id="metadata43">
    <rdf:RDF>
      <cc:Work
         rdf:about="">
        <dc:format>image/svg+xml</dc:format>
        <dc:type
           rdf:resource="http://purl.org/dc/dcmitype/StillImage" />
        <dc:title />
      </cc:Work>
    </rdf:RDF>
  </metadata>
  <sodipodi:namedview
     pagecolor="#ffffff"
     bordercolor="#666666"
     borderopacity="1"
     objecttolerance="10"
     gridtolerance="10"
     guidetolerance="10"
     inkscape:pageopacity="0"
     inkscape:pageshadow="2"
     inkscape:window-width="1366"
     inkscape:window-height="705"
     id="namedview41"
     showgrid="false"
     inkscape:zoom="1.2777886"
     inkscape:cx="207.79796"
     inkscape:cy="213.90077"
     inkscape:window-x="-8"
     inkscape:window-y="-8"
     inkscape:window-maximized="1"
     inkscape:current-layer="svg2"
     width="400px" />
  <desc
     id="desc4">European flag</desc>
  <defs
     id="defs6">
    <g
       id="s">
      <g
         id="c">
        <path
           id="t"
           d="M 0,0 V 1 H 0.5 z"
           transform="matrix(0.95105652,0.30901699,-0.30901699,0.95105652,0,-1)"
           inkscape:connector-curvature="0" />
        <use
           xlink:href="#t"
           transform="scale(-1,1)"
           id="use11"
           x="0"
           y="0"
           width="810"
           height="540" />
      </g>
      <g
         id="a">
        <use
           xlink:href="#c"
           transform="matrix(0.30901699,0.95105652,-0.95105652,0.30901699,0,0)"
           id="use14"
           x="0"
           y="0"
           width="810"
           height="540" />
        <use
           xlink:href="#c"
           transform="matrix(-0.80901699,0.58778525,-0.58778525,-0.80901699,0,0)"
           id="use16"
           x="0"
           y="0"
           width="810"
           height="540" />
      </g>
      <use
         xlink:href="#a"
         transform="scale(-1,1)"
         id="use18"
         x="0"
         y="0"
         width="810"
         height="540" />
    </g>
  </defs>
  <path
     d="m 202.49999,16.957415 c -102.02874,0 -185.252177,83.217515 -185.252177,185.252155 0,102.03952 83.223437,185.25216 185.252177,185.25216 102.03618,0 185.25218,-83.21507 185.25218,-185.25216 0,-102.03464 -83.21834,-185.252155 -185.25218,-185.252155 z M 57.797081,204.43475 c -3.605256,1.69329 0.810717,6.21057 1.451094,2.27845 0.725292,-4.45373 -2.278528,-2.65546 -2.278528,-2.65546 -1.649353,2.61242 1.858644,2.07297 1.031209,-1.48162 0,0 1.769244,0.93202 -0.203775,1.85863 z"
     id="path5"
     style="fill:#fadf4f;fill-opacity:1;fill-rule:evenodd;stroke:#ab7a24;stroke-width:0.977584;stroke-opacity:1"
     inkscape:connector-curvature="0"
     sodipodi:nodetypes="ssssssscss">
    <desc
       id="desc4127">ring</desc>
  </path>
  <path
     d="m 202.02893,38.753812 c -89.98604,0 -163.386078,73.394908 -163.386078,163.386018 0,89.99539 73.400038,163.3861 163.386078,163.3861 89.99226,0 163.38599,-73.39285 163.38599,-163.3861 0,-89.99111 -73.39577,-163.386018 -163.38599,-163.386018 z M 74.405908,204.10238 c -3.179867,1.49345 0.714895,5.47754 1.279633,2.00956 0.639766,-3.92808 -2.009512,-2.34208 -2.009512,-2.34208 -1.454763,2.30408 1.639374,1.82827 0.909597,-1.30667 0,0 1.560269,0.822 -0.179718,1.63919 z"
     id="path5-1"
     style="fill:#003399;fill-opacity:1;fill-rule:evenodd;stroke:#ab7a24;stroke-width:0.86219549;stroke-opacity:1"
     inkscape:connector-curvature="0"
     sodipodi:nodetypes="ssssssscss">
    <desc
       id="desc4127-7">ring</desc>
  </path>
  <g
     transform="matrix(21.25806,0,0,21.25806,202.76338,200.92641)"
     id="g22"
     style="fill:#ffcc00">
    <use
       xlink:href="#s"
       y="-6"
       id="use24"
       x="0"
       width="810"
       height="540" />
    <use
       xlink:href="#s"
       y="6"
       id="use26"
       x="0"
       width="810"
       height="540" />
    <g
       id="l">
      <use
         xlink:href="#s"
         x="-6"
         id="use29"
         y="0"
         width="810"
         height="540" />
      <use
         xlink:href="#s"
         transform="matrix(-0.80901699,-0.58778525,0.58778525,-0.80901699,-3,-5.1961524)"
         id="use31"
         x="0"
         y="0"
         width="810"
         height="540" />
      <use
         xlink:href="#s"
         transform="matrix(-0.80901699,0.58778525,-0.58778525,-0.80901699,-5.1961524,-3)"
         id="use33"
         x="0"
         y="0"
         width="810"
         height="540" />
      <use
         xlink:href="#s"
         transform="matrix(0.30901699,0.95105652,-0.95105652,0.30901699,-5.1961524,3)"
         id="use35"
         x="0"
         y="0"
         width="810"
         height="540" />
      <use
         xlink:href="#s"
         transform="matrix(0.30901699,0.95105652,-0.95105652,0.30901699,-3,5.1961524)"
         id="use37"
         x="0"
         y="0"
         width="810"
         height="540" />
    </g>
    <use
       xlink:href="#l"
       transform="scale(-1,1)"
       id="use39"
       x="0"
       y="0"
       width="810"
       height="540"
       style="fill:#ffcc00;fill-opacity:1" />
  </g>
</svg>
