<svg clip-rule="evenodd" fill-rule="evenodd" height="420.513" image-rendering="optimizeQuality" shape-rendering="geometricPrecision" text-rendering="geometricPrecision" viewBox="0 0 216958.33 111260.67" width="820" xml:space="preserve" xmlns="http://www.w3.org/2000/svg"><g transform="scale(.1095)"><path d="M0 0h1981200v1016000H0z" fill="#c62139"/><path d="M25400.009 25399.999H1955799.9V990599.98H25400.009z" fill="#00297b"/><g style="stroke:#000;stroke-width:39.0236;stroke-dasharray:none;stroke-opacity:1"><g style="stroke:#000;stroke-width:39.0236;stroke-dasharray:none;stroke-opacity:1"><path d="M108537.17 28617.296S90414.637 43037.324 90414.637 58016.354c0 14981.029 18122.543 29783.057 18122.543 29783.057s18006.53-13724.025 18006.53-29783.057c0-16057.03-18006.54-29399.058-18006.54-29399.058z" fill="#92dbfc" style="stroke:none;stroke-width:39.0236;stroke-dasharray:none;stroke-opacity:1" transform="matrix(10.62788 0 0 9.7321 -162304.63 -58489.534)"/><path d="M92419.719 67159.562c4716.233 11327.588 16117.451 20639.81 16117.451 20639.81s11603.94-8844.17 16181.37-20640.687" fill="#008ce7" style="stroke:none;stroke-width:39.0236;stroke-dasharray:none;stroke-opacity:1" transform="matrix(10.62788 0 0 9.7321 -162304.63 -58489.534)"/><path d="M124781.68 63890.343c-2794 1999.002-18515.02 1039-18515.02 1039l-879 2238.004 18719.02 57.999c78-306.998 265-672 330-982.002z" fill="#9c8431" style="fill:#ccc;fill-opacity:1;stroke:none;stroke-width:39.0236;stroke-dasharray:none;stroke-opacity:1" transform="matrix(10.62788 0 0 9.7321 -162304.63 -58489.534)"/><path d="M96651.642 73153.356c796.01 26.008 1589.01 193.997 2301.011 576 1272.997 668 2010.997 662.999 3382.997 683.999 1436.01 21.987 2563.01 1079.003 4115.01 1123.003 2859 80 4061 1500.001 1838 1499.001-1050-1.059-3301-706.001-4389-558.001-1654.01 168-2610 294.002-3834.01 1267.003-1165.997-1400.001-2331.998-2940.004-3414.008-4591.005zm5656.008 7128.008c709.01-485.002 1197.01-864.002 1885.01-885.002 1337-41 1793-868 3338-867 1756 322 4136.01-211 5529.01-520.002 2473-570 1300-2300.004-197-2928.003-1210-518.001-3478.01-26.009-4885.01-540.001-1065-416-187-1079.001 386-1220.001 578-106 1198 85 1917 201.999 1284 113.001 2897.01-7.011 4025.01-182 2331-356.998 2235-1041 3360-1057.002 821-38 1446.01-281.998 2006-682.001 658.01-439 1343.01-1340.002 2139.01-1304l468 20.003c-4916.01 9510.012-13745.02 15753.018-13745.02 15753.018s-2853-2184.001-6226.01-5790.005z" fill="#ffde52" style="stroke:none;stroke-width:39.0236;stroke-dasharray:none;stroke-opacity:1" transform="matrix(10.62788 0 0 9.7321 -162304.63 -58489.534)"/><path d="M113608.67 73315.355c305 1180.003 628 1581.003 1868 1884.001 1224 303.001 3094-887 1935-2042.003-1103-1074-2265-1349-3253-2316.003-1533-1520-3636.01-4662.006-4635.01-7633.01-1093-3248.003-903-12392.016-854-17024.022 1.01-54 133-86 148-108 71-102 139 33 28-646-29-174-167-354-166-530 1.01-314.002-1084 343-1370 903-65 128 208 493 208 565 37 4444.006-441 13218.017 739 17190.024 730 2459.003 2062 4358.006 3268.01 6115.007 723 1126.001 1769 2341.003 2084 3642.006z" fill="#8c4200" style="stroke:#000;stroke-width:39.0236;stroke-dasharray:none;stroke-opacity:1" transform="matrix(10.62788 0 0 9.7321 -162304.63 -58489.534)"/><path d="M97273.642 44871.316c77 106.001 66 563.001 66 563.001 63 38 1085.01-870.001 1085.01-829.001 1 191.001 24 585.001 24 585.001s1058.001-1006.001 1102.001-900.001c49 119-4 702.001-4 702.001s703.997-776.001 832.997-916.001c93-100 78 126 87 491 2.01 65 1154-850 1224-866 149-32 195 475 187 602-6 94 1063-610 1016-517l79 541c298-41 1008.01-306 1435.01-237 137 22 130 91 8 141-2058.01 833.001-3641.01 2089.002-4563.006 3839.005-314 596-410 1116.001-327 1247.001 0 0 370-796 786.996-921 56-16 93 510 150 480 0 0 316-798.002 544-1092.002 61-79 163 419.001 228 345.001 0 0 164-534.001 485-906.001 46-53 129 505 180 458 333-307 646-1077 771-1134 87-68 102 640 185 579 0 0 475.01-954.002 759.01-1127.002 182-112 175 521 175 521 362-357 761-949 950-1206 87-118 39 780 132 815 119 46 899-688 987-703 58-10.002 126 209-26 385-12 13.999-964 1112.001-964 1112.001 185 35 257-17 390 18 395 104-740 755.001-721 877.001 0 0 547-10.002 364 96-132 77-855 1008-855 975.002 0-17 363 8 361 112-3 193-601 1188-607 1182-33-33 321-43 369 55 88 181.002-614.01 986.002-477.01 1123.002 19 19 401 6.001 571 44 82 18 312 1462.002 254 1404.002-12.99-13.999 246.01-1354.001 403.01-1762.002 96-247 403 373 428 318-13 0-62-881.001-19-1282.001 12-112 233 117 230 10.002-8-243.002-28-503.002 22-740.002 38-179 226 323 299 188 0 0-228-872-133-1118 63-162.002 215 392 315 414 0 0-56-678.002 49-853.002l317 340.001c69-109 56-1165.001 120-1264.001 53-83 382 396 431 321 44-68-139-852.002-98-914.002 58-89 419 218 426 212.001 147-148 142-517.001 204-654.001 166-371 1118-419 1230-155 55 128 17 293-5 492 9 8.001 477 42 481 6.001 0 0-56 437-23 918.002 5 64 475-16 481 48 43 453-61 495-61 495 4 33 317-48 322-12.999 34 221-37 490-177 749-21 37.002 448-36 455 7.002 57 340 68 610.001 9 1090.001-5 39 459-339 466-300 70 404-10.99 840 31 1258.001 10.01 97.001 307-289 334-177 27 110-66 910.001-21 955.001 0 0 497.01-25 541.01 17 394 370 319 1016.001 319 1016.001 108-80 67-858-42-1570.002-12-75 382-46 370-116 0 0-432-260-574-984.002-30-155 417-123 417-123-124-285-342-339-527-613-60-90 464-131 464-157 1-273-442-403-671-687-98-121 478-127.002 478-127.002-169-235-726-338-1010-649-155-169 565-335 556-364-79-249-756-327-1084.01-608.002-68-58 428-254 428-254-50-106-1131-817-581-752 232 28 703 358 740 308 0 0-20-415 28-465 181-188.002 805.01 798 1017.01 758 0 0 78-706 174-725 228-43 506 1028 731 1028 30 0 47-619 163-653 131-38 278 694 444 856.001 154 149 156-572.001 246-435.001 153 221 190 682.001 399 885.002 136 132 161-636.002 312-533.002 175 119.001 134 517.002 331 713.002 94 93 157-507 264-419 95 77 159 811 261 927 130 148 280-387 415-302 97 62 74 697 164 833 184 282.002 280-341 402-245 85 65 269 795.002 346 853.002 171 130 265-332 395-267 94 46 284 986 362 962 51-15.999 177-2142.002-641-3039.004-1333-1462.002-3720-2306.002-5668-2327.002 0 0 979-195 1005-357 52-323 538-285 877-211 60 12.999 28-571.002 36-574.002 303-7 574 172 864 348 90 55-183-585-87-530 372 215 786 278 1037 539 66 69.002-76-493-76-493 186-45 553 223 697 474 70 124.002-4-655 51-517 0 0 648 220 718 493 0 0 53-494 140-468 260 68 488 507 691 570 0 0-84-440-17.99-423 488 123 1018 425 1017 423-275-688-1318-1409.001-3153-1602.002-337-34.999-1704-91-2863.01 178.002-950 220-1700 345-1546 195 628-615.002 1643-690.002 1922-833.002 200-102-673-439-500-487 172-41 952-106 952-106 169-132-567-390.001-457-582.002 220-385 1521.01-35 1632.01-181 36-49-559-401-534-453 95-195 1253 144 1280-26 0 0-351-262-601-477.001-30-26 1034-312 1034-312-20-20-182-134-426-229-223-87 934-388 934-388-1466-670.002-5271.01 1236-6026.01 3214.003-196 472-202-41-161-441.001 39-430 93-807 47-1202.002-14-117-311 311.001-331 197.001-76-420 149-881.001 46-1347.001-34-157-428 463-480 306-144-431 108-1037.002 6-1631.002-40-232-413 497-538 289-146-241-82-1134.002-151-1269.002-56-108-388 428-416 327-450-1637.002 148-1841.002-716-918-30 32-222-968.002-255-934.002-354 758.002-934-540-1132-419-148 92 404 594 410 820 3 109-508 116-508 116 11 187 972 711.002 1003 916.002 25 169-680 127-680 127 22 229 823 447 867 690.002 25 134-375 164-362 300 21 209 774 622 799 835.001 17 148-481 209-493 347-15 167 1000 727.001 1001 884.001 1 222-404 108-588 220-259 157.001 831 793.001 877 974.002 36 159-436 19-452 164-20 190 534 477.001 661 803.001 127 322-3 404-185 276-365-257-1837-1821.002-2228-2238.003-568-606-1731.01-1285-2891.01-1325-121 37 624 564 629 755 1.01 49-335 122-320 137 206 206 847 451 847 451l-184 331.001c43 97 347 123 834 283 0 0-365 226-338 247 258 206 758.01 358 758.01 358l-492 165c-29 95 1107 550.002 1107 550.002s-355 306-339 322c87 87 922 280 922 280 14 14-590 202-586 206 219 219 823 290.001 964 652.002 0 0 83 206-156 167-940-341-2396.01-1047.001-5219.01-770.001-2886.007 376.001-5085.009 2885.003-5047.009 3135.004 0 0 1032-740.001 1141.001-590z" fill="#109421" style="display:inline;stroke:#000;stroke-width:39.0236;stroke-dasharray:none;stroke-opacity:1" transform="matrix(10.62788 0 0 9.7321 -162304.63 -58489.534)"/></g><g style="stroke:#000;stroke-width:39.0236;stroke-dasharray:none;stroke-opacity:1"><path d="M103401.71 63123.82c66.77-99.687 133.55-56.838 200.32 0l144.94 7269.516h-481.94z" style="fill:#8c4200;fill-opacity:1;stroke:none;stroke-width:39.0236;stroke-dasharray:none;stroke-opacity:1" transform="matrix(10.62788 0 0 9.7321 -162304.63 -58489.534)"/><path d="M97603.708 70148.337s6037.012 459.999 9739.012-334.999c0 0 311 210.999-136 732.999-447 521.001-1578 632.999-2199 745 0 0-149 335-137 509 13 174.001 392 156.001 578 118.002l186-37.002s-87 652.002-2372 739.002c-750 28.998-3223 81-3746.002-652.002 0 0 453 37.002 571.002 0 118-36.999 32-509-12.01-578.001-42.99-67.998-1603.002 0-2422.002-757.999-203-216.001-300-446-300-528 0-7.012 250 44 250 44zm3146.012 1267s1652 211 3553 0c0 0 50 360-37 497.001-87 136.999-2280 242.001-3386 50.001-178-57.002-184-275.003-130-547.002z" fill="#8c4200" style="stroke:none;stroke-width:39.0236;stroke-dasharray:none;stroke-opacity:1" transform="matrix(10.62788 0 0 9.7321 -162304.63 -58489.534)"/><path d="M98698.666 69655.469s1912.214-2620.642 1299.052-7153.139c2956.012 1796.474 5466.852 4503.156 6150.162 7018.138-2681.47-677.209-5048.45-209.621-7449.214 135.001z" fill="#fdf9ff" style="stroke:none;stroke-width:39.0236;stroke-dasharray:none;stroke-opacity:1" transform="matrix(10.62788 0 0 9.7321 -162304.63 -58489.534)"/><path d="M108540.72 26889.305S89359.708 41168.314 89359.708 58005.326c0 16839.012 19181.012 31522.022 19181.012 31522.022s19058.02-13472.01 19058.02-31522.022c0-18049.013-19058.02-31116.021-19058.02-31116.021zm-7 3456.003S91469.708 43048.315 91469.708 58027.326c0 14981.012 17064.012 28044.022 17064.012 28044.022s16955.02-11985.01 16955.02-28044.022c0-16057.011-16955.02-27682.018-16955.02-27682.018z" fill="#c62139" style="stroke:none;stroke-width:39.0236;stroke-dasharray:none;stroke-opacity:1" transform="matrix(10.62788 0 0 9.7321 -162304.63 -58489.534)"/></g></g><circle style="display:inline;fill:#8c4200;fill-opacity:1;stroke:#000;stroke-width:396.875;stroke-linecap:round;stroke-linejoin:round;stroke-miterlimit:33;stroke-dasharray:none;stroke-opacity:1;paint-order:markers fill stroke" cx="981239.19" cy="377989.19" r="7253.232"/><circle style="display:inline;fill:#8c4200;fill-opacity:1;stroke:#000;stroke-width:396.875;stroke-linecap:round;stroke-linejoin:round;stroke-miterlimit:33;stroke-dasharray:none;stroke-opacity:1;paint-order:markers fill stroke" cx="980555" cy="389895.44" r="7253.232"/><circle style="display:inline;fill:#8c4200;fill-opacity:1;stroke:#000;stroke-width:396.875;stroke-linecap:round;stroke-linejoin:round;stroke-miterlimit:33;stroke-dasharray:none;stroke-opacity:1;paint-order:markers fill stroke" cx="990545.19" cy="375252.12" r="7253.232"/><circle style="display:inline;fill:#8c4200;fill-opacity:1;stroke:#000;stroke-width:396.875;stroke-linecap:round;stroke-linejoin:round;stroke-miterlimit:33;stroke-dasharray:none;stroke-opacity:1;paint-order:markers fill stroke" cx="991640" cy="385379.28" r="7253.232"/><path d="M903993.6 512282.61q-501.11 0-689.03 446.18-187.93 371.82-250.57 1041.09h-751.66v-10410.92h751.66q125.28 1338.54 939.6 1338.54h18478.58v892.37q-1002.22 74.36-1002.22 1264.19v12344.39q0 520.54 125.27 892.36 125.28 371.82 626.39 371.82h313.15v892.36q-8518.9 5354.21-20169.79 5354.21-3946.27 0-7641.98-1115.46-3633.07-1189.83-6451.84-3643.83-2818.76-2454.01-4572.66-6172.2-1691.26-3792.55-1691.26-8849.29 0-5056.74 1691.26-8774.94 1753.9-3792.55 4572.66-6246.56 2818.77-2528.36 6451.84-3718.19 3695.71-1264.18 7641.98-1264.18 1565.98 0 2756.12 74.36 1190.14 74.36 2317.65 297.46 1127.51 223.09 2317.66 594.9 1190.14 297.46 2818.76 818.02 1565.98 520.54 2881.4 1264.18 1315.42 669.27 1691.26 669.27 501.11 0 876.93-594.91l751.67 297.45-4071.53 9816.03-751.67-520.54q125.28-446.2 125.28-818.01 0-520.55-1064.87-1115.46-1064.87-669.27-2693.48-1189.81-1628.63-520.55-3695.71-892.38-2004.46-371.82-3946.28-371.82-2255 0-4322.1 743.65-2004.46 669.27-3633.07 2156.54-1565.99 1487.29-2505.57 3718.2-939.59 2156.55-939.59 5205.47 0 2974.54 1127.51 5205.46 1127.5 2156.56 2818.76 3569.47 1753.89 1412.9 3883.63 2082.19 2129.73 669.27 4196.83 669.27 2630.84 0 4697.93-371.82 2129.74-371.82 4071.55-1041.1v-4908.01z" style="font-weight:700;font-size:68250.2px;font-family:Copperplate;-inkscape-font-specification:'Copperplate Bold';fill:#bd0728;stroke-width:639.846;stroke-linecap:round;stroke-linejoin:round;stroke-miterlimit:33;paint-order:markers fill stroke"/><path d="M962304.39 489180.8q0-526.46-294.92-827.29-236.02-376.03-1356.8-526.46v-902.48h12151.9v902.48q-1120.78 150.43-1415.79 526.46-235.94 300.83-235.94 827.29v20155.52q0 4963.67-1297.73 8348.01-1238.84 3384.32-3480.4 5414.91-2182.66 2030.6-5191.1 2857.87-2949.55 752.08-6311.89 752.08-3362.43 0-6370.96-752.08-2949.45-827.27-5191.1-2857.87-2182.58-2030.59-3480.4-5414.91-1238.75-3384.34-1238.75-8348.01V489180.8q0-526.46-294.92-827.29-236.02-376.03-1356.8-526.46v-902.48h12151.9v902.48q-1120.78 150.43-1415.79 526.46-235.93 300.83-235.93 827.29v20155.52q0 4362.02 1946.64 6242.2 1946.73 1880.18 5486.11 1880.18 3539.38 0 5486.03-1880.18 1946.64-1880.18 1946.64-6242.2z" style="font-weight:700;font-size:66606.7px;font-family:Copperplate;-inkscape-font-specification:'Copperplate Bold';fill:#bd0728;stroke-width:624.44;stroke-linecap:round;stroke-linejoin:round;stroke-miterlimit:33;paint-order:markers fill stroke"/><path d="M1009251.2 525045.21q0 378.17 201.5 605.08 268.5 151.27 1007 151.27v907.64h-11883.38v-907.64q738.55-151.27 1074.24-453.81 335.69-378.18 671.34-1285.82 134.3-378.18 671.4-2042.17 537.1-1663.99 1409.9-4159.99 872.7-2571.63 1947-5672.71 1074.2-3101.08 2148.4-6277.8 1074.2-3252.35 2081.3-6277.8 1074.2-3101.08 1879.8-5521.44 805.7-2420.35 1275.7-3933.07 537-1512.73 537-1588.36 0-378.19-469.9-529.46-402.8-151.27-872.8-226.91v-907.63h17523v907.63q-537.1 75.64-872.8 226.91-335.7 151.27-335.7 756.37 0 151.27 604.3 1966.53 671.4 1815.27 1678.4 4765.08 1007.1 2874.17 2282.8 6580.35 1342.7 3630.53 2752.6 7487.98 1409.9 3781.8 2685.6 7412.33 1342.7 3630.54 2416.9 6504.71 537.1 1361.45 872.8 1815.27 402.8 453.81 1007 453.81v907.64h-13226.1v-907.64q1275.6-75.63 1275.6-907.63 0-75.63-335.7-983.27-335.7-983.27-738.5-2117.81-402.9-1210.18-805.6-2269.09-335.7-1058.91-402.9-1437.08h-15911.7q-671.4 2042.18-1074.2 3327.98-402.9 1285.82-671.4 2042.19-201.4 756.35-335.7 1134.53-67.2 302.55-67.2 453.83zm16314.6-13009.42-6512.3-18001.41-5975.3 18001.41z" style="font-weight:700;font-size:71260.5px;font-family:Copperplate;-inkscape-font-specification:'Copperplate Bold';fill:#bd0728;stroke-width:668.068;stroke-linecap:round;stroke-linejoin:round;stroke-miterlimit:33;paint-order:markers fill stroke"/><path d="M1087907.6 526096.8q1227.2-151.28 1485.6-453.82 323-378.18 323-907.63v-27834.13l-129.2-151.28-11497.9 29346.86-11368.8-29649.4h-129.1v28287.95q0 529.45 258.3 907.63 323 302.54 1550.4 453.82v907.63h-11368.7v-907.63q1227.2-151.28 1485.6-453.82 323-378.18 323-907.63v-35246.48q0-529.45-323-831.99-258.4-378.19-1485.6-529.46v-907.63h16859.2v907.63q-1550.2 75.64-1550.2 1361.45 0 75.63 387.6 1210.18 387.5 1134.54 968.8 2798.54 646 1664 1356.6 3630.54 775.1 1890.9 1421 3706.17 710.6 1739.63 1227.3 3101.08 516.8 1361.46 710.6 1815.27 1098.1-2874.17 2260.8-5597.07 1162.7-2722.91 2067-4991.99 969-2269.09 1550.3-3781.82 581.4-1512.72 581.4-1890.9 0-1285.81-1550.3-1361.45v-907.63h17505.2v907.63q-1227.3 151.27-1550.3 529.46-258.3 302.54-258.3 831.99v35246.48q0 529.45 258.3 907.63 323 302.54 1550.3 453.82v907.63h-12918.9z" style="font-weight:700;font-size:69897.9px;font-family:Copperplate;-inkscape-font-specification:'Copperplate Bold';fill:#bd0728;stroke-width:655.292;stroke-linecap:round;stroke-linejoin:round;stroke-miterlimit:33;paint-order:markers fill stroke"/></g></svg>